<?xml version="1.0" encoding="utf-8"?>
<!-- Generator: Adobe Illustrator 19.0.0, SVG Export Plug-In . SVG Version: 6.00 Build 0)  -->
<svg version="1.1" id="layer" xmlns="http://www.w3.org/2000/svg" xmlns:xlink="http://www.w3.org/1999/xlink" x="0px" y="0px"
	 viewBox="-153 -46 652 652" style="enable-background:new -153 -46 652 652;" xml:space="preserve">
<style type="text/css">
	.st0{fill:#021822;}
	.st1{fill:#FFFFFF;}
</style>
<rect x="-131.6" y="217.4" class="st0" width="600" height="116.2"/>
<path class="st1" d="M-51.3,247.3h14.9v7.4c2.1-6,6-8.5,12.6-8.5h1.5v16.1c-1.2-0.1-2.3-0.2-3.3-0.2c-6.5,0-9.5,2.8-9.5,9.1v16.6
	h-16.2 M2.5,278.1c-4.9,0-6.6-3.4-6.6-10.5c0-7.2,1.8-10.5,6.6-10.5c4.9,0,6.7,3.3,6.7,10.5C9.2,274.7,7.3,278.1,2.5,278.1
	 M2.5,245.9c-14.3,0-22.9,8.2-22.9,21.7c0,13.4,8.6,21.7,22.9,21.7c14.3,0,22.9-8.3,22.9-21.7C25.3,254.1,16.7,245.9,2.5,245.9
	 M57.2,272.1c-0.4,4-2.5,6-6.3,6c-4.7,0-6.6-3.4-6.6-10.5c0-7.1,2.1-10.5,6.8-10.5c3.7,0,5.7,1.8,6,5.7h16.1
	c-0.4-10.2-8.8-16.9-22-16.9c-14.3,0-23.1,8.2-23.1,21.7c0,13.3,8.8,21.7,23.3,21.7c13,0,21.3-6.6,22-17.2 M77.3,287.9h16.1v-20.9
	c0-5.5,2-8.2,6-8.2c4.4,0,5.5,2.5,5.5,8.1v21H121v-21.1c0-7-0.3-12-3.4-15.6c-2.8-3.3-6.6-4.9-11.8-4.9c-5,0-9.2,1.8-12.4,5.4V233
	H77.3 M140.8,263.1c0.2-4.8,2.8-7.6,7-7.6c4.6,0,7,2.5,7.3,7.6 M154.3,275.9c-0.8,2.1-2.9,3.4-6,3.4c-4.7,0-7.3-2.9-7.5-8.1H171v-1
	c0-15.3-8.7-24.3-23-24.3c-14.4,0-23.3,8.5-23.3,22c0,12.9,8.6,21.4,22.7,21.4c12.5,0,20.1-4.7,22.4-13.4H154.3z M195,283.1
	c-7.4,0-11.7-5.4-11.7-15.5c0-10,4-15,11.8-15c7.4,0,11.8,5.5,11.8,15.8C206.9,277.6,202.3,283.1,195,283.1 M176.9,287.9h6.6v-5
	c3.4,4.4,7.5,6.3,13,6.3c10.5,0,17.5-8,17.5-21.1c0-13.3-7.2-21.4-17.5-21.4c-5.5,0-9.8,2.4-12.9,6.9V233h-6.6V287.9z M237.9,283.1
	c-7.9,0-12.3-5.3-12.3-15.3c0-9.9,4.4-15.3,12.3-15.3c7.8,0,12.1,5.3,12.1,15.3C250,277.8,245.6,283.1,237.9,283.1 M237.8,246.6
	c-12,0-19.1,7.7-19.1,21.2s7.1,21.2,19.1,21.2c12,0,19.1-7.7,19.1-21.2S249.8,246.6,237.8,246.6 M280.7,283.1
	c-7.4,0-11.7-5.4-11.7-15.5c0-10,4-15,11.8-15c7.4,0,11.8,5.5,11.8,15.8C292.6,277.6,288,283.1,280.7,283.1 M262.6,287.9h6.6v-5
	c3.4,4.4,7.5,6.3,13,6.3c10.5,0,17.5-8,17.5-21.1c0-13.3-7.2-21.4-17.6-21.4c-5.5,0-9.8,2.4-12.9,6.9V233h-6.6V287.9z M322.9,283.1
	c-7.9,0-12.3-5.3-12.3-15.3c0-9.9,4.3-15.3,12.3-15.3c7.8,0,12.1,5.3,12.1,15.3C335.1,277.8,330.7,283.1,322.9,283.1 M322.9,246.6
	c-12,0-19.1,7.7-19.1,21.2s7.1,21.2,19.1,21.2c12,0,19.1-7.7,19.1-21.2S334.9,246.6,322.9,246.6 M347.9,287.9h6.7v-39.9h-6.7V287.9z
	 M347.9,240.6h6.7V233h-6.7V240.6z M359.6,274.9c0.2,9.2,5.8,14.2,16,14.2c10.7,0,16.6-5,16.6-13.1c0-7-4-9.5-12.1-11.5l-6.5-1.5
	c-4.3-1-6.3-2.1-6.3-5c0-3.6,2.8-5.6,8.2-5.6c5.4,0,8.8,2.4,9,6.6h6.6v-0.2c0-7.4-6-12.2-15.6-12.2c-9.5,0-15,4.7-15,11.5
	c0,6.6,3.4,9.3,11.3,11.2l7.5,1.9c4.1,1,6.1,2.1,6.1,5.4c0,3.8-3.4,6.3-9.3,6.3c-6.3,0-9.7-2.8-10.1-8.2 M265.6,305.1v-3.8h2.8
	c1.3,0,1.9,0.7,1.9,1.9c0,1.4-0.6,1.9-2,1.9 M265.6,307.5h3.3c2.6,0,4-1.5,4-4.3c0-2.8-1.4-4.2-4.2-4.2h-5.9v13.2h2.7V307.5z
	 M297.5,301.7l1.8,5.6h-3.7 M295.9,299l-4.7,13.2h2.9l0.9-2.7h5.1l0.9,2.7h2.8l-4.8-13.2H295.9z M326.6,304.8v-3.5h3.3
	c1.3,0,1.9,0.6,1.9,1.7c0,1.2-0.6,1.7-2,1.7 M323.9,312.2h2.7v-5.1h2.9c1.5,0,1.9,0.5,2,2.1l0,1.4c0,0.7,0.1,1.3,0.3,1.6h3v-0.4
	c-0.5-0.3-0.5-0.7-0.5-1.5l-0.1-1.6c-0.1-1.6-0.4-2.4-1.6-2.9c1.3-0.4,2-1.5,2-3.1c0-2.6-1.4-3.7-4.2-3.7h-6.4V312.2z M355.8,312.2
	h2.7V299h-2.7V312.2z M379.4,308.1c0.1,2.8,2.1,4.4,5.4,4.4c3.4,0,5.3-1.6,5.3-4.3c0-1.4-0.5-2.4-1.6-3c-0.8-0.5-1.9-0.7-3.1-1
	c-2.2-0.5-3.2-0.5-3.2-1.8c0-1,0.8-1.6,2.2-1.6c1.6,0,2.5,0.7,2.6,2h2.6c-0.1-2.6-1.9-4.2-5-4.2c-3.3,0-5.1,1.4-5.1,4
	c0,1.4,0.5,2.4,1.4,3c0.9,0.5,1.9,0.7,2.9,1c2.4,0.6,3.5,0.8,3.5,2c0,1.1-0.8,1.7-2.4,1.7c-1.8,0-2.8-0.7-3-2.1"/>
</svg>
