<svg width="2000" height="1200" viewBox="0 0 2000 1200" fill="none" xmlns="http://www.w3.org/2000/svg">
<g clip-path="url(#clip0)">
<rect width="2000" height="1200" fill="#333333"/>
<path opacity="0.15" d="M-81.3 130.5C-64.05 130.5 -49.35 124.35 -39.6 112.95L-52.2 100.95C-59.85 109.35 -69.3 113.4 -80.25 113.4C-102 113.4 -117.75 98.1 -117.75 76.5C-117.75 54.9 -102 39.6 -80.25 39.6C-69.3 39.6 -59.85 43.65 -52.2 51.9L-39.6 40.05C-49.35 28.65 -64.05 22.5 -81.15 22.5C-113.4 22.5 -137.4 45.15 -137.4 76.5C-137.4 107.85 -113.4 130.5 -81.3 130.5ZM33.8871 48.9V89.4C33.8871 105.45 25.0371 113.55 11.9871 113.55C0.1371 113.55 -6.7629 106.65 -6.7629 92.1V48.9H-25.5129V94.65C-25.5129 118.8 -11.5629 130.05 8.9871 130.05C19.3371 130.05 28.7871 126.15 34.7871 118.8V129H52.6371V48.9H33.8871ZM95.0367 60.6V48.9H77.1867V129H95.9367V90.15C95.9367 73.8 104.937 65.4 119.187 65.4C120.537 65.4 121.887 65.55 123.537 65.85V48C110.187 48 100.437 52.2 95.0367 60.6ZM183.843 48C173.643 48 164.643 51.45 158.193 58.65V17.7H139.443V129H157.293V118.65C163.593 126.3 172.893 130.05 183.843 130.05C207.243 130.05 224.493 113.85 224.493 88.95C224.493 64.05 207.243 48 183.843 48ZM181.743 114C168.243 114 157.893 104.25 157.893 88.95C157.893 73.65 168.243 63.9 181.743 63.9C195.243 63.9 205.443 73.65 205.443 88.95C205.443 104.25 195.243 114 181.743 114ZM318.475 74.4C326.575 70.05 331.975 62.1 331.975 51.3C331.975 34.65 318.475 24 293.275 24H244.075V129H296.275C323.275 129 337.375 118.5 337.375 100.5C337.375 86.85 329.725 78 318.475 74.4ZM291.175 39.3C304.675 39.3 312.325 44.1 312.325 53.85C312.325 63.45 304.675 68.25 291.175 68.25H263.575V39.3H291.175ZM295.075 113.7H263.575V83.4H295.075C309.775 83.4 317.725 88.05 317.725 98.55C317.725 109.05 309.775 113.7 295.075 113.7ZM392.386 130.05C417.286 130.05 435.136 112.95 435.136 88.95C435.136 64.95 417.286 48 392.386 48C367.786 48 349.786 64.95 349.786 88.95C349.786 112.95 367.786 130.05 392.386 130.05ZM392.386 114C378.886 114 368.686 104.25 368.686 88.95C368.686 73.65 378.886 63.9 392.386 63.9C406.036 63.9 416.236 73.65 416.236 88.95C416.236 104.25 406.036 114 392.386 114ZM477.816 130.05C500.316 130.05 514.116 120.3 514.116 105.3C514.116 73.95 464.616 88.35 464.616 72.15C464.616 66.9 470.016 63.15 481.416 63.15C489.066 63.15 496.716 64.65 504.366 69.15L511.566 54.9C504.366 50.55 492.216 48 481.566 48C459.966 48 446.316 57.9 446.316 73.05C446.316 105 495.816 90.6 495.816 105.9C495.816 111.45 490.866 114.75 479.016 114.75C468.966 114.75 458.166 111.45 451.116 106.8L443.916 121.05C451.116 126.15 464.466 130.05 477.816 130.05ZM555.013 130.05C577.513 130.05 591.313 120.3 591.313 105.3C591.313 73.95 541.813 88.35 541.813 72.15C541.813 66.9 547.213 63.15 558.613 63.15C566.263 63.15 573.913 64.65 581.563 69.15L588.763 54.9C581.563 50.55 569.413 48 558.763 48C537.163 48 523.513 57.9 523.513 73.05C523.513 105 573.013 90.6 573.013 105.9C573.013 111.45 568.063 114.75 556.213 114.75C546.163 114.75 535.363 111.45 528.313 106.8L521.113 121.05C528.313 126.15 541.663 130.05 555.013 130.05Z" fill="url(#paint0_linear)"/>
<path opacity="0.15" d="M-237.3 320.5C-220.05 320.5 -205.35 314.35 -195.6 302.95L-208.2 290.95C-215.85 299.35 -225.3 303.4 -236.25 303.4C-258 303.4 -273.75 288.1 -273.75 266.5C-273.75 244.9 -258 229.6 -236.25 229.6C-225.3 229.6 -215.85 233.65 -208.2 241.9L-195.6 230.05C-205.35 218.65 -220.05 212.5 -237.15 212.5C-269.4 212.5 -293.4 235.15 -293.4 266.5C-293.4 297.85 -269.4 320.5 -237.3 320.5ZM-122.113 238.9V279.4C-122.113 295.45 -130.963 303.55 -144.013 303.55C-155.863 303.55 -162.763 296.65 -162.763 282.1V238.9H-181.513V284.65C-181.513 308.8 -167.563 320.05 -147.013 320.05C-136.663 320.05 -127.213 316.15 -121.213 308.8V319H-103.363V238.9H-122.113ZM-60.9633 250.6V238.9H-78.8133V319H-60.0633V280.15C-60.0633 263.8 -51.0633 255.4 -36.8133 255.4C-35.4633 255.4 -34.1133 255.55 -32.4633 255.85V238C-45.8133 238 -55.5633 242.2 -60.9633 250.6ZM27.8425 238C17.6425 238 8.64254 241.45 2.19255 248.65V207.7H-16.5575V319H1.29255V308.65C7.59255 316.3 16.8925 320.05 27.8425 320.05C51.2425 320.05 68.4925 303.85 68.4925 278.95C68.4925 254.05 51.2425 238 27.8425 238ZM25.7425 304C12.2425 304 1.89255 294.25 1.89255 278.95C1.89255 263.65 12.2425 253.9 25.7425 253.9C39.2425 253.9 49.4425 263.65 49.4425 278.95C49.4425 294.25 39.2425 304 25.7425 304ZM162.475 264.4C170.575 260.05 175.975 252.1 175.975 241.3C175.975 224.65 162.475 214 137.275 214H88.0746V319H140.275C167.275 319 181.375 308.5 181.375 290.5C181.375 276.85 173.725 268 162.475 264.4ZM135.175 229.3C148.675 229.3 156.325 234.1 156.325 243.85C156.325 253.45 148.675 258.25 135.175 258.25H107.575V229.3H135.175ZM139.075 303.7H107.575V273.4H139.075C153.775 273.4 161.725 278.05 161.725 288.55C161.725 299.05 153.775 303.7 139.075 303.7ZM236.386 320.05C261.286 320.05 279.136 302.95 279.136 278.95C279.136 254.95 261.286 238 236.386 238C211.786 238 193.786 254.95 193.786 278.95C193.786 302.95 211.786 320.05 236.386 320.05ZM236.386 304C222.886 304 212.686 294.25 212.686 278.95C212.686 263.65 222.886 253.9 236.386 253.9C250.036 253.9 260.236 263.65 260.236 278.95C260.236 294.25 250.036 304 236.386 304ZM321.816 320.05C344.316 320.05 358.116 310.3 358.116 295.3C358.116 263.95 308.616 278.35 308.616 262.15C308.616 256.9 314.016 253.15 325.416 253.15C333.066 253.15 340.716 254.65 348.366 259.15L355.566 244.9C348.366 240.55 336.216 238 325.566 238C303.966 238 290.316 247.9 290.316 263.05C290.316 295 339.816 280.6 339.816 295.9C339.816 301.45 334.866 304.75 323.016 304.75C312.966 304.75 302.166 301.45 295.116 296.8L287.916 311.05C295.116 316.15 308.466 320.05 321.816 320.05ZM399.013 320.05C421.513 320.05 435.313 310.3 435.313 295.3C435.313 263.95 385.813 278.35 385.813 262.15C385.813 256.9 391.213 253.15 402.613 253.15C410.263 253.15 417.913 254.65 425.563 259.15L432.763 244.9C425.563 240.55 413.413 238 402.763 238C381.163 238 367.513 247.9 367.513 263.05C367.513 295 417.013 280.6 417.013 295.9C417.013 301.45 412.063 304.75 400.213 304.75C390.163 304.75 379.363 301.45 372.313 296.8L365.113 311.05C372.313 316.15 385.663 320.05 399.013 320.05Z" fill="url(#paint1_linear)"/>
<path opacity="0.15" d="M-81.3 510.5C-64.05 510.5 -49.35 504.35 -39.6 492.95L-52.2 480.95C-59.85 489.35 -69.3 493.4 -80.25 493.4C-102 493.4 -117.75 478.1 -117.75 456.5C-117.75 434.9 -102 419.6 -80.25 419.6C-69.3 419.6 -59.85 423.65 -52.2 431.9L-39.6 420.05C-49.35 408.65 -64.05 402.5 -81.15 402.5C-113.4 402.5 -137.4 425.15 -137.4 456.5C-137.4 487.85 -113.4 510.5 -81.3 510.5ZM33.8871 428.9V469.4C33.8871 485.45 25.0371 493.55 11.9871 493.55C0.1371 493.55 -6.7629 486.65 -6.7629 472.1V428.9H-25.5129V474.65C-25.5129 498.8 -11.5629 510.05 8.9871 510.05C19.3371 510.05 28.7871 506.15 34.7871 498.8V509H52.6371V428.9H33.8871ZM95.0367 440.6V428.9H77.1867V509H95.9367V470.15C95.9367 453.8 104.937 445.4 119.187 445.4C120.537 445.4 121.887 445.55 123.537 445.85V428C110.187 428 100.437 432.2 95.0367 440.6ZM183.843 428C173.643 428 164.643 431.45 158.193 438.65V397.7H139.443V509H157.293V498.65C163.593 506.3 172.893 510.05 183.843 510.05C207.243 510.05 224.493 493.85 224.493 468.95C224.493 444.05 207.243 428 183.843 428ZM181.743 494C168.243 494 157.893 484.25 157.893 468.95C157.893 453.65 168.243 443.9 181.743 443.9C195.243 443.9 205.443 453.65 205.443 468.95C205.443 484.25 195.243 494 181.743 494ZM318.475 454.4C326.575 450.05 331.975 442.1 331.975 431.3C331.975 414.65 318.475 404 293.275 404H244.075V509H296.275C323.275 509 337.375 498.5 337.375 480.5C337.375 466.85 329.725 458 318.475 454.4ZM291.175 419.3C304.675 419.3 312.325 424.1 312.325 433.85C312.325 443.45 304.675 448.25 291.175 448.25H263.575V419.3H291.175ZM295.075 493.7H263.575V463.4H295.075C309.775 463.4 317.725 468.05 317.725 478.55C317.725 489.05 309.775 493.7 295.075 493.7ZM392.386 510.05C417.286 510.05 435.136 492.95 435.136 468.95C435.136 444.95 417.286 428 392.386 428C367.786 428 349.786 444.95 349.786 468.95C349.786 492.95 367.786 510.05 392.386 510.05ZM392.386 494C378.886 494 368.686 484.25 368.686 468.95C368.686 453.65 378.886 443.9 392.386 443.9C406.036 443.9 416.236 453.65 416.236 468.95C416.236 484.25 406.036 494 392.386 494ZM477.816 510.05C500.316 510.05 514.116 500.3 514.116 485.3C514.116 453.95 464.616 468.35 464.616 452.15C464.616 446.9 470.016 443.15 481.416 443.15C489.066 443.15 496.716 444.65 504.366 449.15L511.566 434.9C504.366 430.55 492.216 428 481.566 428C459.966 428 446.316 437.9 446.316 453.05C446.316 485 495.816 470.6 495.816 485.9C495.816 491.45 490.866 494.75 479.016 494.75C468.966 494.75 458.166 491.45 451.116 486.8L443.916 501.05C451.116 506.15 464.466 510.05 477.816 510.05ZM555.013 510.05C577.513 510.05 591.313 500.3 591.313 485.3C591.313 453.95 541.813 468.35 541.813 452.15C541.813 446.9 547.213 443.15 558.613 443.15C566.263 443.15 573.913 444.65 581.563 449.15L588.763 434.9C581.563 430.55 569.413 428 558.763 428C537.163 428 523.513 437.9 523.513 453.05C523.513 485 573.013 470.6 573.013 485.9C573.013 491.45 568.063 494.75 556.213 494.75C546.163 494.75 535.363 491.45 528.313 486.8L521.113 501.05C528.313 506.15 541.663 510.05 555.013 510.05Z" fill="url(#paint2_linear)"/>
<path opacity="0.15" d="M-225.3 700.5C-208.05 700.5 -193.35 694.35 -183.6 682.95L-196.2 670.95C-203.85 679.35 -213.3 683.4 -224.25 683.4C-246 683.4 -261.75 668.1 -261.75 646.5C-261.75 624.9 -246 609.6 -224.25 609.6C-213.3 609.6 -203.85 613.65 -196.2 621.9L-183.6 610.05C-193.35 598.65 -208.05 592.5 -225.15 592.5C-257.4 592.5 -281.4 615.15 -281.4 646.5C-281.4 677.85 -257.4 700.5 -225.3 700.5ZM-110.113 618.9V659.4C-110.113 675.45 -118.963 683.55 -132.013 683.55C-143.863 683.55 -150.763 676.65 -150.763 662.1V618.9H-169.513V664.65C-169.513 688.8 -155.563 700.05 -135.013 700.05C-124.663 700.05 -115.213 696.15 -109.213 688.8V699H-91.3629V618.9H-110.113ZM-48.9633 630.6V618.9H-66.8133V699H-48.0633V660.15C-48.0633 643.8 -39.0633 635.4 -24.8133 635.4C-23.4633 635.4 -22.1133 635.55 -20.4633 635.85V618C-33.8133 618 -43.5633 622.2 -48.9633 630.6ZM39.8425 618C29.6425 618 20.6425 621.45 14.1925 628.65V587.7H-4.55745V699H13.2925V688.65C19.5925 696.3 28.8925 700.05 39.8425 700.05C63.2425 700.05 80.4925 683.85 80.4925 658.95C80.4925 634.05 63.2425 618 39.8425 618ZM37.7425 684C24.2425 684 13.8925 674.25 13.8925 658.95C13.8925 643.65 24.2425 633.9 37.7425 633.9C51.2425 633.9 61.4425 643.65 61.4425 658.95C61.4425 674.25 51.2425 684 37.7425 684ZM174.475 644.4C182.575 640.05 187.975 632.1 187.975 621.3C187.975 604.65 174.475 594 149.275 594H100.075V699H152.275C179.275 699 193.375 688.5 193.375 670.5C193.375 656.85 185.725 648 174.475 644.4ZM147.175 609.3C160.675 609.3 168.325 614.1 168.325 623.85C168.325 633.45 160.675 638.25 147.175 638.25H119.575V609.3H147.175ZM151.075 683.7H119.575V653.4H151.075C165.775 653.4 173.725 658.05 173.725 668.55C173.725 679.05 165.775 683.7 151.075 683.7ZM248.386 700.05C273.286 700.05 291.136 682.95 291.136 658.95C291.136 634.95 273.286 618 248.386 618C223.786 618 205.786 634.95 205.786 658.95C205.786 682.95 223.786 700.05 248.386 700.05ZM248.386 684C234.886 684 224.686 674.25 224.686 658.95C224.686 643.65 234.886 633.9 248.386 633.9C262.036 633.9 272.236 643.65 272.236 658.95C272.236 674.25 262.036 684 248.386 684ZM333.816 700.05C356.316 700.05 370.116 690.3 370.116 675.3C370.116 643.95 320.616 658.35 320.616 642.15C320.616 636.9 326.016 633.15 337.416 633.15C345.066 633.15 352.716 634.65 360.366 639.15L367.566 624.9C360.366 620.55 348.216 618 337.566 618C315.966 618 302.316 627.9 302.316 643.05C302.316 675 351.816 660.6 351.816 675.9C351.816 681.45 346.866 684.75 335.016 684.75C324.966 684.75 314.166 681.45 307.116 676.8L299.916 691.05C307.116 696.15 320.466 700.05 333.816 700.05ZM411.013 700.05C433.513 700.05 447.313 690.3 447.313 675.3C447.313 643.95 397.813 658.35 397.813 642.15C397.813 636.9 403.213 633.15 414.613 633.15C422.263 633.15 429.913 634.65 437.563 639.15L444.763 624.9C437.563 620.55 425.413 618 414.763 618C393.163 618 379.513 627.9 379.513 643.05C379.513 675 429.013 660.6 429.013 675.9C429.013 681.45 424.063 684.75 412.213 684.75C402.163 684.75 391.363 681.45 384.313 676.8L377.113 691.05C384.313 696.15 397.663 700.05 411.013 700.05Z" fill="url(#paint3_linear)"/>
<path opacity="0.15" d="M-81.3 890.5C-64.05 890.5 -49.35 884.35 -39.6 872.95L-52.2 860.95C-59.85 869.35 -69.3 873.4 -80.25 873.4C-102 873.4 -117.75 858.1 -117.75 836.5C-117.75 814.9 -102 799.6 -80.25 799.6C-69.3 799.6 -59.85 803.65 -52.2 811.9L-39.6 800.05C-49.35 788.65 -64.05 782.5 -81.15 782.5C-113.4 782.5 -137.4 805.15 -137.4 836.5C-137.4 867.85 -113.4 890.5 -81.3 890.5ZM33.8871 808.9V849.4C33.8871 865.45 25.0371 873.55 11.9871 873.55C0.1371 873.55 -6.7629 866.65 -6.7629 852.1V808.9H-25.5129V854.65C-25.5129 878.8 -11.5629 890.05 8.9871 890.05C19.3371 890.05 28.7871 886.15 34.7871 878.8V889H52.6371V808.9H33.8871ZM95.0367 820.6V808.9H77.1867V889H95.9367V850.15C95.9367 833.8 104.937 825.4 119.187 825.4C120.537 825.4 121.887 825.55 123.537 825.85V808C110.187 808 100.437 812.2 95.0367 820.6ZM183.843 808C173.643 808 164.643 811.45 158.193 818.65V777.7H139.443V889H157.293V878.65C163.593 886.3 172.893 890.05 183.843 890.05C207.243 890.05 224.493 873.85 224.493 848.95C224.493 824.05 207.243 808 183.843 808ZM181.743 874C168.243 874 157.893 864.25 157.893 848.95C157.893 833.65 168.243 823.9 181.743 823.9C195.243 823.9 205.443 833.65 205.443 848.95C205.443 864.25 195.243 874 181.743 874ZM318.475 834.4C326.575 830.05 331.975 822.1 331.975 811.3C331.975 794.65 318.475 784 293.275 784H244.075V889H296.275C323.275 889 337.375 878.5 337.375 860.5C337.375 846.85 329.725 838 318.475 834.4ZM291.175 799.3C304.675 799.3 312.325 804.1 312.325 813.85C312.325 823.45 304.675 828.25 291.175 828.25H263.575V799.3H291.175ZM295.075 873.7H263.575V843.4H295.075C309.775 843.4 317.725 848.05 317.725 858.55C317.725 869.05 309.775 873.7 295.075 873.7ZM392.386 890.05C417.286 890.05 435.136 872.95 435.136 848.95C435.136 824.95 417.286 808 392.386 808C367.786 808 349.786 824.95 349.786 848.95C349.786 872.95 367.786 890.05 392.386 890.05ZM392.386 874C378.886 874 368.686 864.25 368.686 848.95C368.686 833.65 378.886 823.9 392.386 823.9C406.036 823.9 416.236 833.65 416.236 848.95C416.236 864.25 406.036 874 392.386 874ZM477.816 890.05C500.316 890.05 514.116 880.3 514.116 865.3C514.116 833.95 464.616 848.35 464.616 832.15C464.616 826.9 470.016 823.15 481.416 823.15C489.066 823.15 496.716 824.65 504.366 829.15L511.566 814.9C504.366 810.55 492.216 808 481.566 808C459.966 808 446.316 817.9 446.316 833.05C446.316 865 495.816 850.6 495.816 865.9C495.816 871.45 490.866 874.75 479.016 874.75C468.966 874.75 458.166 871.45 451.116 866.8L443.916 881.05C451.116 886.15 464.466 890.05 477.816 890.05ZM555.013 890.05C577.513 890.05 591.313 880.3 591.313 865.3C591.313 833.95 541.813 848.35 541.813 832.15C541.813 826.9 547.213 823.15 558.613 823.15C566.263 823.15 573.913 824.65 581.563 829.15L588.763 814.9C581.563 810.55 569.413 808 558.763 808C537.163 808 523.513 817.9 523.513 833.05C523.513 865 573.013 850.6 573.013 865.9C573.013 871.45 568.063 874.75 556.213 874.75C546.163 874.75 535.363 871.45 528.313 866.8L521.113 881.05C528.313 886.15 541.663 890.05 555.013 890.05Z" fill="url(#paint4_linear)"/>
<path opacity="0.15" d="M-225.3 1080.5C-208.05 1080.5 -193.35 1074.35 -183.6 1062.95L-196.2 1050.95C-203.85 1059.35 -213.3 1063.4 -224.25 1063.4C-246 1063.4 -261.75 1048.1 -261.75 1026.5C-261.75 1004.9 -246 989.6 -224.25 989.6C-213.3 989.6 -203.85 993.65 -196.2 1001.9L-183.6 990.05C-193.35 978.65 -208.05 972.5 -225.15 972.5C-257.4 972.5 -281.4 995.15 -281.4 1026.5C-281.4 1057.85 -257.4 1080.5 -225.3 1080.5ZM-110.113 998.9V1039.4C-110.113 1055.45 -118.963 1063.55 -132.013 1063.55C-143.863 1063.55 -150.763 1056.65 -150.763 1042.1V998.9H-169.513V1044.65C-169.513 1068.8 -155.563 1080.05 -135.013 1080.05C-124.663 1080.05 -115.213 1076.15 -109.213 1068.8V1079H-91.3629V998.9H-110.113ZM-48.9633 1010.6V998.9H-66.8133V1079H-48.0633V1040.15C-48.0633 1023.8 -39.0633 1015.4 -24.8133 1015.4C-23.4633 1015.4 -22.1133 1015.55 -20.4633 1015.85V998C-33.8133 998 -43.5633 1002.2 -48.9633 1010.6ZM39.8425 998C29.6425 998 20.6425 1001.45 14.1925 1008.65V967.7H-4.55745V1079H13.2925V1068.65C19.5925 1076.3 28.8925 1080.05 39.8425 1080.05C63.2425 1080.05 80.4925 1063.85 80.4925 1038.95C80.4925 1014.05 63.2425 998 39.8425 998ZM37.7425 1064C24.2425 1064 13.8925 1054.25 13.8925 1038.95C13.8925 1023.65 24.2425 1013.9 37.7425 1013.9C51.2425 1013.9 61.4425 1023.65 61.4425 1038.95C61.4425 1054.25 51.2425 1064 37.7425 1064ZM174.475 1024.4C182.575 1020.05 187.975 1012.1 187.975 1001.3C187.975 984.65 174.475 974 149.275 974H100.075V1079H152.275C179.275 1079 193.375 1068.5 193.375 1050.5C193.375 1036.85 185.725 1028 174.475 1024.4ZM147.175 989.3C160.675 989.3 168.325 994.1 168.325 1003.85C168.325 1013.45 160.675 1018.25 147.175 1018.25H119.575V989.3H147.175ZM151.075 1063.7H119.575V1033.4H151.075C165.775 1033.4 173.725 1038.05 173.725 1048.55C173.725 1059.05 165.775 1063.7 151.075 1063.7ZM248.386 1080.05C273.286 1080.05 291.136 1062.95 291.136 1038.95C291.136 1014.95 273.286 998 248.386 998C223.786 998 205.786 1014.95 205.786 1038.95C205.786 1062.95 223.786 1080.05 248.386 1080.05ZM248.386 1064C234.886 1064 224.686 1054.25 224.686 1038.95C224.686 1023.65 234.886 1013.9 248.386 1013.9C262.036 1013.9 272.236 1023.65 272.236 1038.95C272.236 1054.25 262.036 1064 248.386 1064ZM333.816 1080.05C356.316 1080.05 370.116 1070.3 370.116 1055.3C370.116 1023.95 320.616 1038.35 320.616 1022.15C320.616 1016.9 326.016 1013.15 337.416 1013.15C345.066 1013.15 352.716 1014.65 360.366 1019.15L367.566 1004.9C360.366 1000.55 348.216 998 337.566 998C315.966 998 302.316 1007.9 302.316 1023.05C302.316 1055 351.816 1040.6 351.816 1055.9C351.816 1061.45 346.866 1064.75 335.016 1064.75C324.966 1064.75 314.166 1061.45 307.116 1056.8L299.916 1071.05C307.116 1076.15 320.466 1080.05 333.816 1080.05ZM411.013 1080.05C433.513 1080.05 447.313 1070.3 447.313 1055.3C447.313 1023.95 397.813 1038.35 397.813 1022.15C397.813 1016.9 403.213 1013.15 414.613 1013.15C422.263 1013.15 429.913 1014.65 437.563 1019.15L444.763 1004.9C437.563 1000.55 425.413 998 414.763 998C393.163 998 379.513 1007.9 379.513 1023.05C379.513 1055 429.013 1040.6 429.013 1055.9C429.013 1061.45 424.063 1064.75 412.213 1064.75C402.163 1064.75 391.363 1061.45 384.313 1056.8L377.113 1071.05C384.313 1076.15 397.663 1080.05 411.013 1080.05Z" fill="url(#paint5_linear)"/>
<path opacity="0.15" d="M-81.3 1270.5C-64.05 1270.5 -49.35 1264.35 -39.6 1252.95L-52.2 1240.95C-59.85 1249.35 -69.3 1253.4 -80.25 1253.4C-102 1253.4 -117.75 1238.1 -117.75 1216.5C-117.75 1194.9 -102 1179.6 -80.25 1179.6C-69.3 1179.6 -59.85 1183.65 -52.2 1191.9L-39.6 1180.05C-49.35 1168.65 -64.05 1162.5 -81.15 1162.5C-113.4 1162.5 -137.4 1185.15 -137.4 1216.5C-137.4 1247.85 -113.4 1270.5 -81.3 1270.5ZM33.8871 1188.9V1229.4C33.8871 1245.45 25.0371 1253.55 11.9871 1253.55C0.1371 1253.55 -6.7629 1246.65 -6.7629 1232.1V1188.9H-25.5129V1234.65C-25.5129 1258.8 -11.5629 1270.05 8.9871 1270.05C19.3371 1270.05 28.7871 1266.15 34.7871 1258.8V1269H52.6371V1188.9H33.8871ZM95.0367 1200.6V1188.9H77.1867V1269H95.9367V1230.15C95.9367 1213.8 104.937 1205.4 119.187 1205.4C120.537 1205.4 121.887 1205.55 123.537 1205.85V1188C110.187 1188 100.437 1192.2 95.0367 1200.6ZM183.843 1188C173.643 1188 164.643 1191.45 158.193 1198.65V1157.7H139.443V1269H157.293V1258.65C163.593 1266.3 172.893 1270.05 183.843 1270.05C207.243 1270.05 224.493 1253.85 224.493 1228.95C224.493 1204.05 207.243 1188 183.843 1188ZM181.743 1254C168.243 1254 157.893 1244.25 157.893 1228.95C157.893 1213.65 168.243 1203.9 181.743 1203.9C195.243 1203.9 205.443 1213.65 205.443 1228.95C205.443 1244.25 195.243 1254 181.743 1254ZM318.475 1214.4C326.575 1210.05 331.975 1202.1 331.975 1191.3C331.975 1174.65 318.475 1164 293.275 1164H244.075V1269H296.275C323.275 1269 337.375 1258.5 337.375 1240.5C337.375 1226.85 329.725 1218 318.475 1214.4ZM291.175 1179.3C304.675 1179.3 312.325 1184.1 312.325 1193.85C312.325 1203.45 304.675 1208.25 291.175 1208.25H263.575V1179.3H291.175ZM295.075 1253.7H263.575V1223.4H295.075C309.775 1223.4 317.725 1228.05 317.725 1238.55C317.725 1249.05 309.775 1253.7 295.075 1253.7ZM392.386 1270.05C417.286 1270.05 435.136 1252.95 435.136 1228.95C435.136 1204.95 417.286 1188 392.386 1188C367.786 1188 349.786 1204.95 349.786 1228.95C349.786 1252.95 367.786 1270.05 392.386 1270.05ZM392.386 1254C378.886 1254 368.686 1244.25 368.686 1228.95C368.686 1213.65 378.886 1203.9 392.386 1203.9C406.036 1203.9 416.236 1213.65 416.236 1228.95C416.236 1244.25 406.036 1254 392.386 1254ZM477.816 1270.05C500.316 1270.05 514.116 1260.3 514.116 1245.3C514.116 1213.95 464.616 1228.35 464.616 1212.15C464.616 1206.9 470.016 1203.15 481.416 1203.15C489.066 1203.15 496.716 1204.65 504.366 1209.15L511.566 1194.9C504.366 1190.55 492.216 1188 481.566 1188C459.966 1188 446.316 1197.9 446.316 1213.05C446.316 1245 495.816 1230.6 495.816 1245.9C495.816 1251.45 490.866 1254.75 479.016 1254.75C468.966 1254.75 458.166 1251.45 451.116 1246.8L443.916 1261.05C451.116 1266.15 464.466 1270.05 477.816 1270.05ZM555.013 1270.05C577.513 1270.05 591.313 1260.3 591.313 1245.3C591.313 1213.95 541.813 1228.35 541.813 1212.15C541.813 1206.9 547.213 1203.15 558.613 1203.15C566.263 1203.15 573.913 1204.65 581.563 1209.15L588.763 1194.9C581.563 1190.55 569.413 1188 558.763 1188C537.163 1188 523.513 1197.9 523.513 1213.05C523.513 1245 573.013 1230.6 573.013 1245.9C573.013 1251.45 568.063 1254.75 556.213 1254.75C546.163 1254.75 535.363 1251.45 528.313 1246.8L521.113 1261.05C528.313 1266.15 541.663 1270.05 555.013 1270.05Z" fill="url(#paint6_linear)"/>
<path opacity="0.15" d="M690.7 130.5C707.95 130.5 722.65 124.35 732.4 112.95L719.8 100.95C712.15 109.35 702.7 113.4 691.75 113.4C670 113.4 654.25 98.1 654.25 76.5C654.25 54.9 670 39.6 691.75 39.6C702.7 39.6 712.15 43.65 719.8 51.9L732.4 40.05C722.65 28.65 707.95 22.5 690.85 22.5C658.6 22.5 634.6 45.15 634.6 76.5C634.6 107.85 658.6 130.5 690.7 130.5ZM805.887 48.9V89.4C805.887 105.45 797.037 113.55 783.987 113.55C772.137 113.55 765.237 106.65 765.237 92.1V48.9H746.487V94.65C746.487 118.8 760.437 130.05 780.987 130.05C791.337 130.05 800.787 126.15 806.787 118.8V129H824.637V48.9H805.887ZM867.037 60.6V48.9H849.187V129H867.937V90.15C867.937 73.8 876.937 65.4 891.187 65.4C892.537 65.4 893.887 65.55 895.537 65.85V48C882.187 48 872.437 52.2 867.037 60.6ZM955.843 48C945.643 48 936.643 51.45 930.193 58.65V17.7H911.443V129H929.293V118.65C935.593 126.3 944.893 130.05 955.843 130.05C979.243 130.05 996.493 113.85 996.493 88.95C996.493 64.05 979.243 48 955.843 48ZM953.743 114C940.243 114 929.893 104.25 929.893 88.95C929.893 73.65 940.243 63.9 953.743 63.9C967.243 63.9 977.443 73.65 977.443 88.95C977.443 104.25 967.243 114 953.743 114ZM1090.47 74.4C1098.57 70.05 1103.97 62.1 1103.97 51.3C1103.97 34.65 1090.47 24 1065.27 24H1016.07V129H1068.27C1095.27 129 1109.37 118.5 1109.37 100.5C1109.37 86.85 1101.72 78 1090.47 74.4ZM1063.17 39.3C1076.67 39.3 1084.32 44.1 1084.32 53.85C1084.32 63.45 1076.67 68.25 1063.17 68.25H1035.57V39.3H1063.17ZM1067.07 113.7H1035.57V83.4H1067.07C1081.77 83.4 1089.72 88.05 1089.72 98.55C1089.72 109.05 1081.77 113.7 1067.07 113.7ZM1164.39 130.05C1189.29 130.05 1207.14 112.95 1207.14 88.95C1207.14 64.95 1189.29 48 1164.39 48C1139.79 48 1121.79 64.95 1121.79 88.95C1121.79 112.95 1139.79 130.05 1164.39 130.05ZM1164.39 114C1150.89 114 1140.69 104.25 1140.69 88.95C1140.69 73.65 1150.89 63.9 1164.39 63.9C1178.04 63.9 1188.24 73.65 1188.24 88.95C1188.24 104.25 1178.04 114 1164.39 114ZM1249.82 130.05C1272.32 130.05 1286.12 120.3 1286.12 105.3C1286.12 73.95 1236.62 88.35 1236.62 72.15C1236.62 66.9 1242.02 63.15 1253.42 63.15C1261.07 63.15 1268.72 64.65 1276.37 69.15L1283.57 54.9C1276.37 50.55 1264.22 48 1253.57 48C1231.97 48 1218.32 57.9 1218.32 73.05C1218.32 105 1267.82 90.6 1267.82 105.9C1267.82 111.45 1262.87 114.75 1251.02 114.75C1240.97 114.75 1230.17 111.45 1223.12 106.8L1215.92 121.05C1223.12 126.15 1236.47 130.05 1249.82 130.05ZM1327.01 130.05C1349.51 130.05 1363.31 120.3 1363.31 105.3C1363.31 73.95 1313.81 88.35 1313.81 72.15C1313.81 66.9 1319.21 63.15 1330.61 63.15C1338.26 63.15 1345.91 64.65 1353.56 69.15L1360.76 54.9C1353.56 50.55 1341.41 48 1330.76 48C1309.16 48 1295.51 57.9 1295.51 73.05C1295.51 105 1345.01 90.6 1345.01 105.9C1345.01 111.45 1340.06 114.75 1328.21 114.75C1318.16 114.75 1307.36 111.45 1300.31 106.8L1293.11 121.05C1300.31 126.15 1313.66 130.05 1327.01 130.05Z" fill="url(#paint7_linear)"/>
<path opacity="0.15" d="M534.7 320.5C551.95 320.5 566.65 314.35 576.4 302.95L563.8 290.95C556.15 299.35 546.7 303.4 535.75 303.4C514 303.4 498.25 288.1 498.25 266.5C498.25 244.9 514 229.6 535.75 229.6C546.7 229.6 556.15 233.65 563.8 241.9L576.4 230.05C566.65 218.65 551.95 212.5 534.85 212.5C502.6 212.5 478.6 235.15 478.6 266.5C478.6 297.85 502.6 320.5 534.7 320.5ZM649.887 238.9V279.4C649.887 295.45 641.037 303.55 627.987 303.55C616.137 303.55 609.237 296.65 609.237 282.1V238.9H590.487V284.65C590.487 308.8 604.437 320.05 624.987 320.05C635.337 320.05 644.787 316.15 650.787 308.8V319H668.637V238.9H649.887ZM711.037 250.6V238.9H693.187V319H711.937V280.15C711.937 263.8 720.937 255.4 735.187 255.4C736.537 255.4 737.887 255.55 739.537 255.85V238C726.187 238 716.437 242.2 711.037 250.6ZM799.843 238C789.643 238 780.643 241.45 774.193 248.65V207.7H755.443V319H773.293V308.65C779.593 316.3 788.893 320.05 799.843 320.05C823.243 320.05 840.493 303.85 840.493 278.95C840.493 254.05 823.243 238 799.843 238ZM797.743 304C784.243 304 773.893 294.25 773.893 278.95C773.893 263.65 784.243 253.9 797.743 253.9C811.243 253.9 821.443 263.65 821.443 278.95C821.443 294.25 811.243 304 797.743 304ZM934.475 264.4C942.575 260.05 947.975 252.1 947.975 241.3C947.975 224.65 934.475 214 909.275 214H860.075V319H912.275C939.275 319 953.375 308.5 953.375 290.5C953.375 276.85 945.725 268 934.475 264.4ZM907.175 229.3C920.675 229.3 928.325 234.1 928.325 243.85C928.325 253.45 920.675 258.25 907.175 258.25H879.575V229.3H907.175ZM911.075 303.7H879.575V273.4H911.075C925.775 273.4 933.725 278.05 933.725 288.55C933.725 299.05 925.775 303.7 911.075 303.7ZM1008.39 320.05C1033.29 320.05 1051.14 302.95 1051.14 278.95C1051.14 254.95 1033.29 238 1008.39 238C983.786 238 965.786 254.95 965.786 278.95C965.786 302.95 983.786 320.05 1008.39 320.05ZM1008.39 304C994.886 304 984.686 294.25 984.686 278.95C984.686 263.65 994.886 253.9 1008.39 253.9C1022.04 253.9 1032.24 263.65 1032.24 278.95C1032.24 294.25 1022.04 304 1008.39 304ZM1093.82 320.05C1116.32 320.05 1130.12 310.3 1130.12 295.3C1130.12 263.95 1080.62 278.35 1080.62 262.15C1080.62 256.9 1086.02 253.15 1097.42 253.15C1105.07 253.15 1112.72 254.65 1120.37 259.15L1127.57 244.9C1120.37 240.55 1108.22 238 1097.57 238C1075.97 238 1062.32 247.9 1062.32 263.05C1062.32 295 1111.82 280.6 1111.82 295.9C1111.82 301.45 1106.87 304.75 1095.02 304.75C1084.97 304.75 1074.17 301.45 1067.12 296.8L1059.92 311.05C1067.12 316.15 1080.47 320.05 1093.82 320.05ZM1171.01 320.05C1193.51 320.05 1207.31 310.3 1207.31 295.3C1207.31 263.95 1157.81 278.35 1157.81 262.15C1157.81 256.9 1163.21 253.15 1174.61 253.15C1182.26 253.15 1189.91 254.65 1197.56 259.15L1204.76 244.9C1197.56 240.55 1185.41 238 1174.76 238C1153.16 238 1139.51 247.9 1139.51 263.05C1139.51 295 1189.01 280.6 1189.01 295.9C1189.01 301.45 1184.06 304.75 1172.21 304.75C1162.16 304.75 1151.36 301.45 1144.31 296.8L1137.11 311.05C1144.31 316.15 1157.66 320.05 1171.01 320.05Z" fill="url(#paint8_linear)"/>
<path opacity="0.15" d="M690.7 510.5C707.95 510.5 722.65 504.35 732.4 492.95L719.8 480.95C712.15 489.35 702.7 493.4 691.75 493.4C670 493.4 654.25 478.1 654.25 456.5C654.25 434.9 670 419.6 691.75 419.6C702.7 419.6 712.15 423.65 719.8 431.9L732.4 420.05C722.65 408.65 707.95 402.5 690.85 402.5C658.6 402.5 634.6 425.15 634.6 456.5C634.6 487.85 658.6 510.5 690.7 510.5ZM805.887 428.9V469.4C805.887 485.45 797.037 493.55 783.987 493.55C772.137 493.55 765.237 486.65 765.237 472.1V428.9H746.487V474.65C746.487 498.8 760.437 510.05 780.987 510.05C791.337 510.05 800.787 506.15 806.787 498.8V509H824.637V428.9H805.887ZM867.037 440.6V428.9H849.187V509H867.937V470.15C867.937 453.8 876.937 445.4 891.187 445.4C892.537 445.4 893.887 445.55 895.537 445.85V428C882.187 428 872.437 432.2 867.037 440.6ZM955.843 428C945.643 428 936.643 431.45 930.193 438.65V397.7H911.443V509H929.293V498.65C935.593 506.3 944.893 510.05 955.843 510.05C979.243 510.05 996.493 493.85 996.493 468.95C996.493 444.05 979.243 428 955.843 428ZM953.743 494C940.243 494 929.893 484.25 929.893 468.95C929.893 453.65 940.243 443.9 953.743 443.9C967.243 443.9 977.443 453.65 977.443 468.95C977.443 484.25 967.243 494 953.743 494ZM1090.47 454.4C1098.57 450.05 1103.97 442.1 1103.97 431.3C1103.97 414.65 1090.47 404 1065.27 404H1016.07V509H1068.27C1095.27 509 1109.37 498.5 1109.37 480.5C1109.37 466.85 1101.72 458 1090.47 454.4ZM1063.17 419.3C1076.67 419.3 1084.32 424.1 1084.32 433.85C1084.32 443.45 1076.67 448.25 1063.17 448.25H1035.57V419.3H1063.17ZM1067.07 493.7H1035.57V463.4H1067.07C1081.77 463.4 1089.72 468.05 1089.72 478.55C1089.72 489.05 1081.77 493.7 1067.07 493.7ZM1164.39 510.05C1189.29 510.05 1207.14 492.95 1207.14 468.95C1207.14 444.95 1189.29 428 1164.39 428C1139.79 428 1121.79 444.95 1121.79 468.95C1121.79 492.95 1139.79 510.05 1164.39 510.05ZM1164.39 494C1150.89 494 1140.69 484.25 1140.69 468.95C1140.69 453.65 1150.89 443.9 1164.39 443.9C1178.04 443.9 1188.24 453.65 1188.24 468.95C1188.24 484.25 1178.04 494 1164.39 494ZM1249.82 510.05C1272.32 510.05 1286.12 500.3 1286.12 485.3C1286.12 453.95 1236.62 468.35 1236.62 452.15C1236.62 446.9 1242.02 443.15 1253.42 443.15C1261.07 443.15 1268.72 444.65 1276.37 449.15L1283.57 434.9C1276.37 430.55 1264.22 428 1253.57 428C1231.97 428 1218.32 437.9 1218.32 453.05C1218.32 485 1267.82 470.6 1267.82 485.9C1267.82 491.45 1262.87 494.75 1251.02 494.75C1240.97 494.75 1230.17 491.45 1223.12 486.8L1215.92 501.05C1223.12 506.15 1236.47 510.05 1249.82 510.05ZM1327.01 510.05C1349.51 510.05 1363.31 500.3 1363.31 485.3C1363.31 453.95 1313.81 468.35 1313.81 452.15C1313.81 446.9 1319.21 443.15 1330.61 443.15C1338.26 443.15 1345.91 444.65 1353.56 449.15L1360.76 434.9C1353.56 430.55 1341.41 428 1330.76 428C1309.16 428 1295.51 437.9 1295.51 453.05C1295.51 485 1345.01 470.6 1345.01 485.9C1345.01 491.45 1340.06 494.75 1328.21 494.75C1318.16 494.75 1307.36 491.45 1300.31 486.8L1293.11 501.05C1300.31 506.15 1313.66 510.05 1327.01 510.05Z" fill="url(#paint9_linear)"/>
<path opacity="0.15" d="M546.7 700.5C563.95 700.5 578.65 694.35 588.4 682.95L575.8 670.95C568.15 679.35 558.7 683.4 547.75 683.4C526 683.4 510.25 668.1 510.25 646.5C510.25 624.9 526 609.6 547.75 609.6C558.7 609.6 568.15 613.65 575.8 621.9L588.4 610.05C578.65 598.65 563.95 592.5 546.85 592.5C514.6 592.5 490.6 615.15 490.6 646.5C490.6 677.85 514.6 700.5 546.7 700.5ZM661.887 618.9V659.4C661.887 675.45 653.037 683.55 639.987 683.55C628.137 683.55 621.237 676.65 621.237 662.1V618.9H602.487V664.65C602.487 688.8 616.437 700.05 636.987 700.05C647.337 700.05 656.787 696.15 662.787 688.8V699H680.637V618.9H661.887ZM723.037 630.6V618.9H705.187V699H723.937V660.15C723.937 643.8 732.937 635.4 747.187 635.4C748.537 635.4 749.887 635.55 751.537 635.85V618C738.187 618 728.437 622.2 723.037 630.6ZM811.843 618C801.643 618 792.643 621.45 786.193 628.65V587.7H767.443V699H785.293V688.65C791.593 696.3 800.893 700.05 811.843 700.05C835.243 700.05 852.493 683.85 852.493 658.95C852.493 634.05 835.243 618 811.843 618ZM809.743 684C796.243 684 785.893 674.25 785.893 658.95C785.893 643.65 796.243 633.9 809.743 633.9C823.243 633.9 833.443 643.65 833.443 658.95C833.443 674.25 823.243 684 809.743 684ZM946.475 644.4C954.575 640.05 959.975 632.1 959.975 621.3C959.975 604.65 946.475 594 921.275 594H872.075V699H924.275C951.275 699 965.375 688.5 965.375 670.5C965.375 656.85 957.725 648 946.475 644.4ZM919.175 609.3C932.675 609.3 940.325 614.1 940.325 623.85C940.325 633.45 932.675 638.25 919.175 638.25H891.575V609.3H919.175ZM923.075 683.7H891.575V653.4H923.075C937.775 653.4 945.725 658.05 945.725 668.55C945.725 679.05 937.775 683.7 923.075 683.7ZM1020.39 700.05C1045.29 700.05 1063.14 682.95 1063.14 658.95C1063.14 634.95 1045.29 618 1020.39 618C995.786 618 977.786 634.95 977.786 658.95C977.786 682.95 995.786 700.05 1020.39 700.05ZM1020.39 684C1006.89 684 996.686 674.25 996.686 658.95C996.686 643.65 1006.89 633.9 1020.39 633.9C1034.04 633.9 1044.24 643.65 1044.24 658.95C1044.24 674.25 1034.04 684 1020.39 684ZM1105.82 700.05C1128.32 700.05 1142.12 690.3 1142.12 675.3C1142.12 643.95 1092.62 658.35 1092.62 642.15C1092.62 636.9 1098.02 633.15 1109.42 633.15C1117.07 633.15 1124.72 634.65 1132.37 639.15L1139.57 624.9C1132.37 620.55 1120.22 618 1109.57 618C1087.97 618 1074.32 627.9 1074.32 643.05C1074.32 675 1123.82 660.6 1123.82 675.9C1123.82 681.45 1118.87 684.75 1107.02 684.75C1096.97 684.75 1086.17 681.45 1079.12 676.8L1071.92 691.05C1079.12 696.15 1092.47 700.05 1105.82 700.05ZM1183.01 700.05C1205.51 700.05 1219.31 690.3 1219.31 675.3C1219.31 643.95 1169.81 658.35 1169.81 642.15C1169.81 636.9 1175.21 633.15 1186.61 633.15C1194.26 633.15 1201.91 634.65 1209.56 639.15L1216.76 624.9C1209.56 620.55 1197.41 618 1186.76 618C1165.16 618 1151.51 627.9 1151.51 643.05C1151.51 675 1201.01 660.6 1201.01 675.9C1201.01 681.45 1196.06 684.75 1184.21 684.75C1174.16 684.75 1163.36 681.45 1156.31 676.8L1149.11 691.05C1156.31 696.15 1169.66 700.05 1183.01 700.05Z" fill="url(#paint10_linear)"/>
<path opacity="0.15" d="M690.7 890.5C707.95 890.5 722.65 884.35 732.4 872.95L719.8 860.95C712.15 869.35 702.7 873.4 691.75 873.4C670 873.4 654.25 858.1 654.25 836.5C654.25 814.9 670 799.6 691.75 799.6C702.7 799.6 712.15 803.65 719.8 811.9L732.4 800.05C722.65 788.65 707.95 782.5 690.85 782.5C658.6 782.5 634.6 805.15 634.6 836.5C634.6 867.85 658.6 890.5 690.7 890.5ZM805.887 808.9V849.4C805.887 865.45 797.037 873.55 783.987 873.55C772.137 873.55 765.237 866.65 765.237 852.1V808.9H746.487V854.65C746.487 878.8 760.437 890.05 780.987 890.05C791.337 890.05 800.787 886.15 806.787 878.8V889H824.637V808.9H805.887ZM867.037 820.6V808.9H849.187V889H867.937V850.15C867.937 833.8 876.937 825.4 891.187 825.4C892.537 825.4 893.887 825.55 895.537 825.85V808C882.187 808 872.437 812.2 867.037 820.6ZM955.843 808C945.643 808 936.643 811.45 930.193 818.65V777.7H911.443V889H929.293V878.65C935.593 886.3 944.893 890.05 955.843 890.05C979.243 890.05 996.493 873.85 996.493 848.95C996.493 824.05 979.243 808 955.843 808ZM953.743 874C940.243 874 929.893 864.25 929.893 848.95C929.893 833.65 940.243 823.9 953.743 823.9C967.243 823.9 977.443 833.65 977.443 848.95C977.443 864.25 967.243 874 953.743 874ZM1090.47 834.4C1098.57 830.05 1103.97 822.1 1103.97 811.3C1103.97 794.65 1090.47 784 1065.27 784H1016.07V889H1068.27C1095.27 889 1109.37 878.5 1109.37 860.5C1109.37 846.85 1101.72 838 1090.47 834.4ZM1063.17 799.3C1076.67 799.3 1084.32 804.1 1084.32 813.85C1084.32 823.45 1076.67 828.25 1063.17 828.25H1035.57V799.3H1063.17ZM1067.07 873.7H1035.57V843.4H1067.07C1081.77 843.4 1089.72 848.05 1089.72 858.55C1089.72 869.05 1081.77 873.7 1067.07 873.7ZM1164.39 890.05C1189.29 890.05 1207.14 872.95 1207.14 848.95C1207.14 824.95 1189.29 808 1164.39 808C1139.79 808 1121.79 824.95 1121.79 848.95C1121.79 872.95 1139.79 890.05 1164.39 890.05ZM1164.39 874C1150.89 874 1140.69 864.25 1140.69 848.95C1140.69 833.65 1150.89 823.9 1164.39 823.9C1178.04 823.9 1188.24 833.65 1188.24 848.95C1188.24 864.25 1178.04 874 1164.39 874ZM1249.82 890.05C1272.32 890.05 1286.12 880.3 1286.12 865.3C1286.12 833.95 1236.62 848.35 1236.62 832.15C1236.62 826.9 1242.02 823.15 1253.42 823.15C1261.07 823.15 1268.72 824.65 1276.37 829.15L1283.57 814.9C1276.37 810.55 1264.22 808 1253.57 808C1231.97 808 1218.32 817.9 1218.32 833.05C1218.32 865 1267.82 850.6 1267.82 865.9C1267.82 871.45 1262.87 874.75 1251.02 874.75C1240.97 874.75 1230.17 871.45 1223.12 866.8L1215.92 881.05C1223.12 886.15 1236.47 890.05 1249.82 890.05ZM1327.01 890.05C1349.51 890.05 1363.31 880.3 1363.31 865.3C1363.31 833.95 1313.81 848.35 1313.81 832.15C1313.81 826.9 1319.21 823.15 1330.61 823.15C1338.26 823.15 1345.91 824.65 1353.56 829.15L1360.76 814.9C1353.56 810.55 1341.41 808 1330.76 808C1309.16 808 1295.51 817.9 1295.51 833.05C1295.51 865 1345.01 850.6 1345.01 865.9C1345.01 871.45 1340.06 874.75 1328.21 874.75C1318.16 874.75 1307.36 871.45 1300.31 866.8L1293.11 881.05C1300.31 886.15 1313.66 890.05 1327.01 890.05Z" fill="url(#paint11_linear)"/>
<path opacity="0.15" d="M546.7 1080.5C563.95 1080.5 578.65 1074.35 588.4 1062.95L575.8 1050.95C568.15 1059.35 558.7 1063.4 547.75 1063.4C526 1063.4 510.25 1048.1 510.25 1026.5C510.25 1004.9 526 989.6 547.75 989.6C558.7 989.6 568.15 993.65 575.8 1001.9L588.4 990.05C578.65 978.65 563.95 972.5 546.85 972.5C514.6 972.5 490.6 995.15 490.6 1026.5C490.6 1057.85 514.6 1080.5 546.7 1080.5ZM661.887 998.9V1039.4C661.887 1055.45 653.037 1063.55 639.987 1063.55C628.137 1063.55 621.237 1056.65 621.237 1042.1V998.9H602.487V1044.65C602.487 1068.8 616.437 1080.05 636.987 1080.05C647.337 1080.05 656.787 1076.15 662.787 1068.8V1079H680.637V998.9H661.887ZM723.037 1010.6V998.9H705.187V1079H723.937V1040.15C723.937 1023.8 732.937 1015.4 747.187 1015.4C748.537 1015.4 749.887 1015.55 751.537 1015.85V998C738.187 998 728.437 1002.2 723.037 1010.6ZM811.843 998C801.643 998 792.643 1001.45 786.193 1008.65V967.7H767.443V1079H785.293V1068.65C791.593 1076.3 800.893 1080.05 811.843 1080.05C835.243 1080.05 852.493 1063.85 852.493 1038.95C852.493 1014.05 835.243 998 811.843 998ZM809.743 1064C796.243 1064 785.893 1054.25 785.893 1038.95C785.893 1023.65 796.243 1013.9 809.743 1013.9C823.243 1013.9 833.443 1023.65 833.443 1038.95C833.443 1054.25 823.243 1064 809.743 1064ZM946.475 1024.4C954.575 1020.05 959.975 1012.1 959.975 1001.3C959.975 984.65 946.475 974 921.275 974H872.075V1079H924.275C951.275 1079 965.375 1068.5 965.375 1050.5C965.375 1036.85 957.725 1028 946.475 1024.4ZM919.175 989.3C932.675 989.3 940.325 994.1 940.325 1003.85C940.325 1013.45 932.675 1018.25 919.175 1018.25H891.575V989.3H919.175ZM923.075 1063.7H891.575V1033.4H923.075C937.775 1033.4 945.725 1038.05 945.725 1048.55C945.725 1059.05 937.775 1063.7 923.075 1063.7ZM1020.39 1080.05C1045.29 1080.05 1063.14 1062.95 1063.14 1038.95C1063.14 1014.95 1045.29 998 1020.39 998C995.786 998 977.786 1014.95 977.786 1038.95C977.786 1062.95 995.786 1080.05 1020.39 1080.05ZM1020.39 1064C1006.89 1064 996.686 1054.25 996.686 1038.95C996.686 1023.65 1006.89 1013.9 1020.39 1013.9C1034.04 1013.9 1044.24 1023.65 1044.24 1038.95C1044.24 1054.25 1034.04 1064 1020.39 1064ZM1105.82 1080.05C1128.32 1080.05 1142.12 1070.3 1142.12 1055.3C1142.12 1023.95 1092.62 1038.35 1092.62 1022.15C1092.62 1016.9 1098.02 1013.15 1109.42 1013.15C1117.07 1013.15 1124.72 1014.65 1132.37 1019.15L1139.57 1004.9C1132.37 1000.55 1120.22 998 1109.57 998C1087.97 998 1074.32 1007.9 1074.32 1023.05C1074.32 1055 1123.82 1040.6 1123.82 1055.9C1123.82 1061.45 1118.87 1064.75 1107.02 1064.75C1096.97 1064.75 1086.17 1061.45 1079.12 1056.8L1071.92 1071.05C1079.12 1076.15 1092.47 1080.05 1105.82 1080.05ZM1183.01 1080.05C1205.51 1080.05 1219.31 1070.3 1219.31 1055.3C1219.31 1023.95 1169.81 1038.35 1169.81 1022.15C1169.81 1016.9 1175.21 1013.15 1186.61 1013.15C1194.26 1013.15 1201.91 1014.65 1209.56 1019.15L1216.76 1004.9C1209.56 1000.55 1197.41 998 1186.76 998C1165.16 998 1151.51 1007.9 1151.51 1023.05C1151.51 1055 1201.01 1040.6 1201.01 1055.9C1201.01 1061.45 1196.06 1064.75 1184.21 1064.75C1174.16 1064.75 1163.36 1061.45 1156.31 1056.8L1149.11 1071.05C1156.31 1076.15 1169.66 1080.05 1183.01 1080.05Z" fill="url(#paint12_linear)"/>
<path opacity="0.15" d="M690.7 1270.5C707.95 1270.5 722.65 1264.35 732.4 1252.95L719.8 1240.95C712.15 1249.35 702.7 1253.4 691.75 1253.4C670 1253.4 654.25 1238.1 654.25 1216.5C654.25 1194.9 670 1179.6 691.75 1179.6C702.7 1179.6 712.15 1183.65 719.8 1191.9L732.4 1180.05C722.65 1168.65 707.95 1162.5 690.85 1162.5C658.6 1162.5 634.6 1185.15 634.6 1216.5C634.6 1247.85 658.6 1270.5 690.7 1270.5ZM805.887 1188.9V1229.4C805.887 1245.45 797.037 1253.55 783.987 1253.55C772.137 1253.55 765.237 1246.65 765.237 1232.1V1188.9H746.487V1234.65C746.487 1258.8 760.437 1270.05 780.987 1270.05C791.337 1270.05 800.787 1266.15 806.787 1258.8V1269H824.637V1188.9H805.887ZM867.037 1200.6V1188.9H849.187V1269H867.937V1230.15C867.937 1213.8 876.937 1205.4 891.187 1205.4C892.537 1205.4 893.887 1205.55 895.537 1205.85V1188C882.187 1188 872.437 1192.2 867.037 1200.6ZM955.843 1188C945.643 1188 936.643 1191.45 930.193 1198.65V1157.7H911.443V1269H929.293V1258.65C935.593 1266.3 944.893 1270.05 955.843 1270.05C979.243 1270.05 996.493 1253.85 996.493 1228.95C996.493 1204.05 979.243 1188 955.843 1188ZM953.743 1254C940.243 1254 929.893 1244.25 929.893 1228.95C929.893 1213.65 940.243 1203.9 953.743 1203.9C967.243 1203.9 977.443 1213.65 977.443 1228.95C977.443 1244.25 967.243 1254 953.743 1254ZM1090.47 1214.4C1098.57 1210.05 1103.97 1202.1 1103.97 1191.3C1103.97 1174.65 1090.47 1164 1065.27 1164H1016.07V1269H1068.27C1095.27 1269 1109.37 1258.5 1109.37 1240.5C1109.37 1226.85 1101.72 1218 1090.47 1214.4ZM1063.17 1179.3C1076.67 1179.3 1084.32 1184.1 1084.32 1193.85C1084.32 1203.45 1076.67 1208.25 1063.17 1208.25H1035.57V1179.3H1063.17ZM1067.07 1253.7H1035.57V1223.4H1067.07C1081.77 1223.4 1089.72 1228.05 1089.72 1238.55C1089.72 1249.05 1081.77 1253.7 1067.07 1253.7ZM1164.39 1270.05C1189.29 1270.05 1207.14 1252.95 1207.14 1228.95C1207.14 1204.95 1189.29 1188 1164.39 1188C1139.79 1188 1121.79 1204.95 1121.79 1228.95C1121.79 1252.95 1139.79 1270.05 1164.39 1270.05ZM1164.39 1254C1150.89 1254 1140.69 1244.25 1140.69 1228.95C1140.69 1213.65 1150.89 1203.9 1164.39 1203.9C1178.04 1203.9 1188.24 1213.65 1188.24 1228.95C1188.24 1244.25 1178.04 1254 1164.39 1254ZM1249.82 1270.05C1272.32 1270.05 1286.12 1260.3 1286.12 1245.3C1286.12 1213.95 1236.62 1228.35 1236.62 1212.15C1236.62 1206.9 1242.02 1203.15 1253.42 1203.15C1261.07 1203.15 1268.72 1204.65 1276.37 1209.15L1283.57 1194.9C1276.37 1190.55 1264.22 1188 1253.57 1188C1231.97 1188 1218.32 1197.9 1218.32 1213.05C1218.32 1245 1267.82 1230.6 1267.82 1245.9C1267.82 1251.45 1262.87 1254.75 1251.02 1254.75C1240.97 1254.75 1230.17 1251.45 1223.12 1246.8L1215.92 1261.05C1223.12 1266.15 1236.47 1270.05 1249.82 1270.05ZM1327.01 1270.05C1349.51 1270.05 1363.31 1260.3 1363.31 1245.3C1363.31 1213.95 1313.81 1228.35 1313.81 1212.15C1313.81 1206.9 1319.21 1203.15 1330.61 1203.15C1338.26 1203.15 1345.91 1204.65 1353.56 1209.15L1360.76 1194.9C1353.56 1190.55 1341.41 1188 1330.76 1188C1309.16 1188 1295.51 1197.9 1295.51 1213.05C1295.51 1245 1345.01 1230.6 1345.01 1245.9C1345.01 1251.45 1340.06 1254.75 1328.21 1254.75C1318.16 1254.75 1307.36 1251.45 1300.31 1246.8L1293.11 1261.05C1300.31 1266.15 1313.66 1270.05 1327.01 1270.05Z" fill="url(#paint13_linear)"/>
<path opacity="0.15" d="M1462.7 130.5C1479.95 130.5 1494.65 124.35 1504.4 112.95L1491.8 100.95C1484.15 109.35 1474.7 113.4 1463.75 113.4C1442 113.4 1426.25 98.1 1426.25 76.5C1426.25 54.9 1442 39.6 1463.75 39.6C1474.7 39.6 1484.15 43.65 1491.8 51.9L1504.4 40.05C1494.65 28.65 1479.95 22.5 1462.85 22.5C1430.6 22.5 1406.6 45.15 1406.6 76.5C1406.6 107.85 1430.6 130.5 1462.7 130.5ZM1577.89 48.9V89.4C1577.89 105.45 1569.04 113.55 1555.99 113.55C1544.14 113.55 1537.24 106.65 1537.24 92.1V48.9H1518.49V94.65C1518.49 118.8 1532.44 130.05 1552.99 130.05C1563.34 130.05 1572.79 126.15 1578.79 118.8V129H1596.64V48.9H1577.89ZM1639.04 60.6V48.9H1621.19V129H1639.94V90.15C1639.94 73.8 1648.94 65.4 1663.19 65.4C1664.54 65.4 1665.89 65.55 1667.54 65.85V48C1654.19 48 1644.44 52.2 1639.04 60.6ZM1727.84 48C1717.64 48 1708.64 51.45 1702.19 58.65V17.7H1683.44V129H1701.29V118.65C1707.59 126.3 1716.89 130.05 1727.84 130.05C1751.24 130.05 1768.49 113.85 1768.49 88.95C1768.49 64.05 1751.24 48 1727.84 48ZM1725.74 114C1712.24 114 1701.89 104.25 1701.89 88.95C1701.89 73.65 1712.24 63.9 1725.74 63.9C1739.24 63.9 1749.44 73.65 1749.44 88.95C1749.44 104.25 1739.24 114 1725.74 114ZM1862.47 74.4C1870.57 70.05 1875.97 62.1 1875.97 51.3C1875.97 34.65 1862.47 24 1837.27 24H1788.07V129H1840.27C1867.27 129 1881.37 118.5 1881.37 100.5C1881.37 86.85 1873.72 78 1862.47 74.4ZM1835.17 39.3C1848.67 39.3 1856.32 44.1 1856.32 53.85C1856.32 63.45 1848.67 68.25 1835.17 68.25H1807.57V39.3H1835.17ZM1839.07 113.7H1807.57V83.4H1839.07C1853.77 83.4 1861.72 88.05 1861.72 98.55C1861.72 109.05 1853.77 113.7 1839.07 113.7ZM1936.39 130.05C1961.29 130.05 1979.14 112.95 1979.14 88.95C1979.14 64.95 1961.29 48 1936.39 48C1911.79 48 1893.79 64.95 1893.79 88.95C1893.79 112.95 1911.79 130.05 1936.39 130.05ZM1936.39 114C1922.89 114 1912.69 104.25 1912.69 88.95C1912.69 73.65 1922.89 63.9 1936.39 63.9C1950.04 63.9 1960.24 73.65 1960.24 88.95C1960.24 104.25 1950.04 114 1936.39 114ZM2021.82 130.05C2044.32 130.05 2058.12 120.3 2058.12 105.3C2058.12 73.95 2008.62 88.35 2008.62 72.15C2008.62 66.9 2014.02 63.15 2025.42 63.15C2033.07 63.15 2040.72 64.65 2048.37 69.15L2055.57 54.9C2048.37 50.55 2036.22 48 2025.57 48C2003.97 48 1990.32 57.9 1990.32 73.05C1990.32 105 2039.82 90.6 2039.82 105.9C2039.82 111.45 2034.87 114.75 2023.02 114.75C2012.97 114.75 2002.17 111.45 1995.12 106.8L1987.92 121.05C1995.12 126.15 2008.47 130.05 2021.82 130.05ZM2099.01 130.05C2121.51 130.05 2135.31 120.3 2135.31 105.3C2135.31 73.95 2085.81 88.35 2085.81 72.15C2085.81 66.9 2091.21 63.15 2102.61 63.15C2110.26 63.15 2117.91 64.65 2125.56 69.15L2132.76 54.9C2125.56 50.55 2113.41 48 2102.76 48C2081.16 48 2067.51 57.9 2067.51 73.05C2067.51 105 2117.01 90.6 2117.01 105.9C2117.01 111.45 2112.06 114.75 2100.21 114.75C2090.16 114.75 2079.36 111.45 2072.31 106.8L2065.11 121.05C2072.31 126.15 2085.66 130.05 2099.01 130.05Z" fill="url(#paint14_linear)"/>
<path opacity="0.15" d="M1306.7 320.5C1323.95 320.5 1338.65 314.35 1348.4 302.95L1335.8 290.95C1328.15 299.35 1318.7 303.4 1307.75 303.4C1286 303.4 1270.25 288.1 1270.25 266.5C1270.25 244.9 1286 229.6 1307.75 229.6C1318.7 229.6 1328.15 233.65 1335.8 241.9L1348.4 230.05C1338.65 218.65 1323.95 212.5 1306.85 212.5C1274.6 212.5 1250.6 235.15 1250.6 266.5C1250.6 297.85 1274.6 320.5 1306.7 320.5ZM1421.89 238.9V279.4C1421.89 295.45 1413.04 303.55 1399.99 303.55C1388.14 303.55 1381.24 296.65 1381.24 282.1V238.9H1362.49V284.65C1362.49 308.8 1376.44 320.05 1396.99 320.05C1407.34 320.05 1416.79 316.15 1422.79 308.8V319H1440.64V238.9H1421.89ZM1483.04 250.6V238.9H1465.19V319H1483.94V280.15C1483.94 263.8 1492.94 255.4 1507.19 255.4C1508.54 255.4 1509.89 255.55 1511.54 255.85V238C1498.19 238 1488.44 242.2 1483.04 250.6ZM1571.84 238C1561.64 238 1552.64 241.45 1546.19 248.65V207.7H1527.44V319H1545.29V308.65C1551.59 316.3 1560.89 320.05 1571.84 320.05C1595.24 320.05 1612.49 303.85 1612.49 278.95C1612.49 254.05 1595.24 238 1571.84 238ZM1569.74 304C1556.24 304 1545.89 294.25 1545.89 278.95C1545.89 263.65 1556.24 253.9 1569.74 253.9C1583.24 253.9 1593.44 263.65 1593.44 278.95C1593.44 294.25 1583.24 304 1569.74 304ZM1706.47 264.4C1714.57 260.05 1719.97 252.1 1719.97 241.3C1719.97 224.65 1706.47 214 1681.27 214H1632.07V319H1684.27C1711.27 319 1725.37 308.5 1725.37 290.5C1725.37 276.85 1717.72 268 1706.47 264.4ZM1679.17 229.3C1692.67 229.3 1700.32 234.1 1700.32 243.85C1700.32 253.45 1692.67 258.25 1679.17 258.25H1651.57V229.3H1679.17ZM1683.07 303.7H1651.57V273.4H1683.07C1697.77 273.4 1705.72 278.05 1705.72 288.55C1705.72 299.05 1697.77 303.7 1683.07 303.7ZM1780.39 320.05C1805.29 320.05 1823.14 302.95 1823.14 278.95C1823.14 254.95 1805.29 238 1780.39 238C1755.79 238 1737.79 254.95 1737.79 278.95C1737.79 302.95 1755.79 320.05 1780.39 320.05ZM1780.39 304C1766.89 304 1756.69 294.25 1756.69 278.95C1756.69 263.65 1766.89 253.9 1780.39 253.9C1794.04 253.9 1804.24 263.65 1804.24 278.95C1804.24 294.25 1794.04 304 1780.39 304ZM1865.82 320.05C1888.32 320.05 1902.12 310.3 1902.12 295.3C1902.12 263.95 1852.62 278.35 1852.62 262.15C1852.62 256.9 1858.02 253.15 1869.42 253.15C1877.07 253.15 1884.72 254.65 1892.37 259.15L1899.57 244.9C1892.37 240.55 1880.22 238 1869.57 238C1847.97 238 1834.32 247.9 1834.32 263.05C1834.32 295 1883.82 280.6 1883.82 295.9C1883.82 301.45 1878.87 304.75 1867.02 304.75C1856.97 304.75 1846.17 301.45 1839.12 296.8L1831.92 311.05C1839.12 316.15 1852.47 320.05 1865.82 320.05ZM1943.01 320.05C1965.51 320.05 1979.31 310.3 1979.31 295.3C1979.31 263.95 1929.81 278.35 1929.81 262.15C1929.81 256.9 1935.21 253.15 1946.61 253.15C1954.26 253.15 1961.91 254.65 1969.56 259.15L1976.76 244.9C1969.56 240.55 1957.41 238 1946.76 238C1925.16 238 1911.51 247.9 1911.51 263.05C1911.51 295 1961.01 280.6 1961.01 295.9C1961.01 301.45 1956.06 304.75 1944.21 304.75C1934.16 304.75 1923.36 301.45 1916.31 296.8L1909.11 311.05C1916.31 316.15 1929.66 320.05 1943.01 320.05Z" fill="url(#paint15_linear)"/>
<path opacity="0.15" d="M1462.7 510.5C1479.95 510.5 1494.65 504.35 1504.4 492.95L1491.8 480.95C1484.15 489.35 1474.7 493.4 1463.75 493.4C1442 493.4 1426.25 478.1 1426.25 456.5C1426.25 434.9 1442 419.6 1463.75 419.6C1474.7 419.6 1484.15 423.65 1491.8 431.9L1504.4 420.05C1494.65 408.65 1479.95 402.5 1462.85 402.5C1430.6 402.5 1406.6 425.15 1406.6 456.5C1406.6 487.85 1430.6 510.5 1462.7 510.5ZM1577.89 428.9V469.4C1577.89 485.45 1569.04 493.55 1555.99 493.55C1544.14 493.55 1537.24 486.65 1537.24 472.1V428.9H1518.49V474.65C1518.49 498.8 1532.44 510.05 1552.99 510.05C1563.34 510.05 1572.79 506.15 1578.79 498.8V509H1596.64V428.9H1577.89ZM1639.04 440.6V428.9H1621.19V509H1639.94V470.15C1639.94 453.8 1648.94 445.4 1663.19 445.4C1664.54 445.4 1665.89 445.55 1667.54 445.85V428C1654.19 428 1644.44 432.2 1639.04 440.6ZM1727.84 428C1717.64 428 1708.64 431.45 1702.19 438.65V397.7H1683.44V509H1701.29V498.65C1707.59 506.3 1716.89 510.05 1727.84 510.05C1751.24 510.05 1768.49 493.85 1768.49 468.95C1768.49 444.05 1751.24 428 1727.84 428ZM1725.74 494C1712.24 494 1701.89 484.25 1701.89 468.95C1701.89 453.65 1712.24 443.9 1725.74 443.9C1739.24 443.9 1749.44 453.65 1749.44 468.95C1749.44 484.25 1739.24 494 1725.74 494ZM1862.47 454.4C1870.57 450.05 1875.97 442.1 1875.97 431.3C1875.97 414.65 1862.47 404 1837.27 404H1788.07V509H1840.27C1867.27 509 1881.37 498.5 1881.37 480.5C1881.37 466.85 1873.72 458 1862.47 454.4ZM1835.17 419.3C1848.67 419.3 1856.32 424.1 1856.32 433.85C1856.32 443.45 1848.67 448.25 1835.17 448.25H1807.57V419.3H1835.17ZM1839.07 493.7H1807.57V463.4H1839.07C1853.77 463.4 1861.72 468.05 1861.72 478.55C1861.72 489.05 1853.77 493.7 1839.07 493.7ZM1936.39 510.05C1961.29 510.05 1979.14 492.95 1979.14 468.95C1979.14 444.95 1961.29 428 1936.39 428C1911.79 428 1893.79 444.95 1893.79 468.95C1893.79 492.95 1911.79 510.05 1936.39 510.05ZM1936.39 494C1922.89 494 1912.69 484.25 1912.69 468.95C1912.69 453.65 1922.89 443.9 1936.39 443.9C1950.04 443.9 1960.24 453.65 1960.24 468.95C1960.24 484.25 1950.04 494 1936.39 494ZM2021.82 510.05C2044.32 510.05 2058.12 500.3 2058.12 485.3C2058.12 453.95 2008.62 468.35 2008.62 452.15C2008.62 446.9 2014.02 443.15 2025.42 443.15C2033.07 443.15 2040.72 444.65 2048.37 449.15L2055.57 434.9C2048.37 430.55 2036.22 428 2025.57 428C2003.97 428 1990.32 437.9 1990.32 453.05C1990.32 485 2039.82 470.6 2039.82 485.9C2039.82 491.45 2034.87 494.75 2023.02 494.75C2012.97 494.75 2002.17 491.45 1995.12 486.8L1987.92 501.05C1995.12 506.15 2008.47 510.05 2021.82 510.05ZM2099.01 510.05C2121.51 510.05 2135.31 500.3 2135.31 485.3C2135.31 453.95 2085.81 468.35 2085.81 452.15C2085.81 446.9 2091.21 443.15 2102.61 443.15C2110.26 443.15 2117.91 444.65 2125.56 449.15L2132.76 434.9C2125.56 430.55 2113.41 428 2102.76 428C2081.16 428 2067.51 437.9 2067.51 453.05C2067.51 485 2117.01 470.6 2117.01 485.9C2117.01 491.45 2112.06 494.75 2100.21 494.75C2090.16 494.75 2079.36 491.45 2072.31 486.8L2065.11 501.05C2072.31 506.15 2085.66 510.05 2099.01 510.05Z" fill="url(#paint16_linear)"/>
<path opacity="0.15" d="M1318.7 700.5C1335.95 700.5 1350.65 694.35 1360.4 682.95L1347.8 670.95C1340.15 679.35 1330.7 683.4 1319.75 683.4C1298 683.4 1282.25 668.1 1282.25 646.5C1282.25 624.9 1298 609.6 1319.75 609.6C1330.7 609.6 1340.15 613.65 1347.8 621.9L1360.4 610.05C1350.65 598.65 1335.95 592.5 1318.85 592.5C1286.6 592.5 1262.6 615.15 1262.6 646.5C1262.6 677.85 1286.6 700.5 1318.7 700.5ZM1433.89 618.9V659.4C1433.89 675.45 1425.04 683.55 1411.99 683.55C1400.14 683.55 1393.24 676.65 1393.24 662.1V618.9H1374.49V664.65C1374.49 688.8 1388.44 700.05 1408.99 700.05C1419.34 700.05 1428.79 696.15 1434.79 688.8V699H1452.64V618.9H1433.89ZM1495.04 630.6V618.9H1477.19V699H1495.94V660.15C1495.94 643.8 1504.94 635.4 1519.19 635.4C1520.54 635.4 1521.89 635.55 1523.54 635.85V618C1510.19 618 1500.44 622.2 1495.04 630.6ZM1583.84 618C1573.64 618 1564.64 621.45 1558.19 628.65V587.7H1539.44V699H1557.29V688.65C1563.59 696.3 1572.89 700.05 1583.84 700.05C1607.24 700.05 1624.49 683.85 1624.49 658.95C1624.49 634.05 1607.24 618 1583.84 618ZM1581.74 684C1568.24 684 1557.89 674.25 1557.89 658.95C1557.89 643.65 1568.24 633.9 1581.74 633.9C1595.24 633.9 1605.44 643.65 1605.44 658.95C1605.44 674.25 1595.24 684 1581.74 684ZM1718.47 644.4C1726.57 640.05 1731.97 632.1 1731.97 621.3C1731.97 604.65 1718.47 594 1693.27 594H1644.07V699H1696.27C1723.27 699 1737.37 688.5 1737.37 670.5C1737.37 656.85 1729.72 648 1718.47 644.4ZM1691.17 609.3C1704.67 609.3 1712.32 614.1 1712.32 623.85C1712.32 633.45 1704.67 638.25 1691.17 638.25H1663.57V609.3H1691.17ZM1695.07 683.7H1663.57V653.4H1695.07C1709.77 653.4 1717.72 658.05 1717.72 668.55C1717.72 679.05 1709.77 683.7 1695.07 683.7ZM1792.39 700.05C1817.29 700.05 1835.14 682.95 1835.14 658.95C1835.14 634.95 1817.29 618 1792.39 618C1767.79 618 1749.79 634.95 1749.79 658.95C1749.79 682.95 1767.79 700.05 1792.39 700.05ZM1792.39 684C1778.89 684 1768.69 674.25 1768.69 658.95C1768.69 643.65 1778.89 633.9 1792.39 633.9C1806.04 633.9 1816.24 643.65 1816.24 658.95C1816.24 674.25 1806.04 684 1792.39 684ZM1877.82 700.05C1900.32 700.05 1914.12 690.3 1914.12 675.3C1914.12 643.95 1864.62 658.35 1864.62 642.15C1864.62 636.9 1870.02 633.15 1881.42 633.15C1889.07 633.15 1896.72 634.65 1904.37 639.15L1911.57 624.9C1904.37 620.55 1892.22 618 1881.57 618C1859.97 618 1846.32 627.9 1846.32 643.05C1846.32 675 1895.82 660.6 1895.82 675.9C1895.82 681.45 1890.87 684.75 1879.02 684.75C1868.97 684.75 1858.17 681.45 1851.12 676.8L1843.92 691.05C1851.12 696.15 1864.47 700.05 1877.82 700.05ZM1955.01 700.05C1977.51 700.05 1991.31 690.3 1991.31 675.3C1991.31 643.95 1941.81 658.35 1941.81 642.15C1941.81 636.9 1947.21 633.15 1958.61 633.15C1966.26 633.15 1973.91 634.65 1981.56 639.15L1988.76 624.9C1981.56 620.55 1969.41 618 1958.76 618C1937.16 618 1923.51 627.9 1923.51 643.05C1923.51 675 1973.01 660.6 1973.01 675.9C1973.01 681.45 1968.06 684.75 1956.21 684.75C1946.16 684.75 1935.36 681.45 1928.31 676.8L1921.11 691.05C1928.31 696.15 1941.66 700.05 1955.01 700.05Z" fill="url(#paint17_linear)"/>
<path opacity="0.15" d="M1462.7 890.5C1479.95 890.5 1494.65 884.35 1504.4 872.95L1491.8 860.95C1484.15 869.35 1474.7 873.4 1463.75 873.4C1442 873.4 1426.25 858.1 1426.25 836.5C1426.25 814.9 1442 799.6 1463.75 799.6C1474.7 799.6 1484.15 803.65 1491.8 811.9L1504.4 800.05C1494.65 788.65 1479.95 782.5 1462.85 782.5C1430.6 782.5 1406.6 805.15 1406.6 836.5C1406.6 867.85 1430.6 890.5 1462.7 890.5ZM1577.89 808.9V849.4C1577.89 865.45 1569.04 873.55 1555.99 873.55C1544.14 873.55 1537.24 866.65 1537.24 852.1V808.9H1518.49V854.65C1518.49 878.8 1532.44 890.05 1552.99 890.05C1563.34 890.05 1572.79 886.15 1578.79 878.8V889H1596.64V808.9H1577.89ZM1639.04 820.6V808.9H1621.19V889H1639.94V850.15C1639.94 833.8 1648.94 825.4 1663.19 825.4C1664.54 825.4 1665.89 825.55 1667.54 825.85V808C1654.19 808 1644.44 812.2 1639.04 820.6ZM1727.84 808C1717.64 808 1708.64 811.45 1702.19 818.65V777.7H1683.44V889H1701.29V878.65C1707.59 886.3 1716.89 890.05 1727.84 890.05C1751.24 890.05 1768.49 873.85 1768.49 848.95C1768.49 824.05 1751.24 808 1727.84 808ZM1725.74 874C1712.24 874 1701.89 864.25 1701.89 848.95C1701.89 833.65 1712.24 823.9 1725.74 823.9C1739.24 823.9 1749.44 833.65 1749.44 848.95C1749.44 864.25 1739.24 874 1725.74 874ZM1862.47 834.4C1870.57 830.05 1875.97 822.1 1875.97 811.3C1875.97 794.65 1862.47 784 1837.27 784H1788.07V889H1840.27C1867.27 889 1881.37 878.5 1881.37 860.5C1881.37 846.85 1873.72 838 1862.47 834.4ZM1835.17 799.3C1848.67 799.3 1856.32 804.1 1856.32 813.85C1856.32 823.45 1848.67 828.25 1835.17 828.25H1807.57V799.3H1835.17ZM1839.07 873.7H1807.57V843.4H1839.07C1853.77 843.4 1861.72 848.05 1861.72 858.55C1861.72 869.05 1853.77 873.7 1839.07 873.7ZM1936.39 890.05C1961.29 890.05 1979.14 872.95 1979.14 848.95C1979.14 824.95 1961.29 808 1936.39 808C1911.79 808 1893.79 824.95 1893.79 848.95C1893.79 872.95 1911.79 890.05 1936.39 890.05ZM1936.39 874C1922.89 874 1912.69 864.25 1912.69 848.95C1912.69 833.65 1922.89 823.9 1936.39 823.9C1950.04 823.9 1960.24 833.65 1960.24 848.95C1960.24 864.25 1950.04 874 1936.39 874ZM2021.82 890.05C2044.32 890.05 2058.12 880.3 2058.12 865.3C2058.12 833.95 2008.62 848.35 2008.62 832.15C2008.62 826.9 2014.02 823.15 2025.42 823.15C2033.07 823.15 2040.72 824.65 2048.37 829.15L2055.57 814.9C2048.37 810.55 2036.22 808 2025.57 808C2003.97 808 1990.32 817.9 1990.32 833.05C1990.32 865 2039.82 850.6 2039.82 865.9C2039.82 871.45 2034.87 874.75 2023.02 874.75C2012.97 874.75 2002.17 871.45 1995.12 866.8L1987.92 881.05C1995.12 886.15 2008.47 890.05 2021.82 890.05ZM2099.01 890.05C2121.51 890.05 2135.31 880.3 2135.31 865.3C2135.31 833.95 2085.81 848.35 2085.81 832.15C2085.81 826.9 2091.21 823.15 2102.61 823.15C2110.26 823.15 2117.91 824.65 2125.56 829.15L2132.76 814.9C2125.56 810.55 2113.41 808 2102.76 808C2081.16 808 2067.51 817.9 2067.51 833.05C2067.51 865 2117.01 850.6 2117.01 865.9C2117.01 871.45 2112.06 874.75 2100.21 874.75C2090.16 874.75 2079.36 871.45 2072.31 866.8L2065.11 881.05C2072.31 886.15 2085.66 890.05 2099.01 890.05Z" fill="url(#paint18_linear)"/>
<path opacity="0.15" d="M1318.7 1080.5C1335.95 1080.5 1350.65 1074.35 1360.4 1062.95L1347.8 1050.95C1340.15 1059.35 1330.7 1063.4 1319.75 1063.4C1298 1063.4 1282.25 1048.1 1282.25 1026.5C1282.25 1004.9 1298 989.6 1319.75 989.6C1330.7 989.6 1340.15 993.65 1347.8 1001.9L1360.4 990.05C1350.65 978.65 1335.95 972.5 1318.85 972.5C1286.6 972.5 1262.6 995.15 1262.6 1026.5C1262.6 1057.85 1286.6 1080.5 1318.7 1080.5ZM1433.89 998.9V1039.4C1433.89 1055.45 1425.04 1063.55 1411.99 1063.55C1400.14 1063.55 1393.24 1056.65 1393.24 1042.1V998.9H1374.49V1044.65C1374.49 1068.8 1388.44 1080.05 1408.99 1080.05C1419.34 1080.05 1428.79 1076.15 1434.79 1068.8V1079H1452.64V998.9H1433.89ZM1495.04 1010.6V998.9H1477.19V1079H1495.94V1040.15C1495.94 1023.8 1504.94 1015.4 1519.19 1015.4C1520.54 1015.4 1521.89 1015.55 1523.54 1015.85V998C1510.19 998 1500.44 1002.2 1495.04 1010.6ZM1583.84 998C1573.64 998 1564.64 1001.45 1558.19 1008.65V967.7H1539.44V1079H1557.29V1068.65C1563.59 1076.3 1572.89 1080.05 1583.84 1080.05C1607.24 1080.05 1624.49 1063.85 1624.49 1038.95C1624.49 1014.05 1607.24 998 1583.84 998ZM1581.74 1064C1568.24 1064 1557.89 1054.25 1557.89 1038.95C1557.89 1023.65 1568.24 1013.9 1581.74 1013.9C1595.24 1013.9 1605.44 1023.65 1605.44 1038.95C1605.44 1054.25 1595.24 1064 1581.74 1064ZM1718.47 1024.4C1726.57 1020.05 1731.97 1012.1 1731.97 1001.3C1731.97 984.65 1718.47 974 1693.27 974H1644.07V1079H1696.27C1723.27 1079 1737.37 1068.5 1737.37 1050.5C1737.37 1036.85 1729.72 1028 1718.47 1024.4ZM1691.17 989.3C1704.67 989.3 1712.32 994.1 1712.32 1003.85C1712.32 1013.45 1704.67 1018.25 1691.17 1018.25H1663.57V989.3H1691.17ZM1695.07 1063.7H1663.57V1033.4H1695.07C1709.77 1033.4 1717.72 1038.05 1717.72 1048.55C1717.72 1059.05 1709.77 1063.7 1695.07 1063.7ZM1792.39 1080.05C1817.29 1080.05 1835.14 1062.95 1835.14 1038.95C1835.14 1014.95 1817.29 998 1792.39 998C1767.79 998 1749.79 1014.95 1749.79 1038.95C1749.79 1062.95 1767.79 1080.05 1792.39 1080.05ZM1792.39 1064C1778.89 1064 1768.69 1054.25 1768.69 1038.95C1768.69 1023.65 1778.89 1013.9 1792.39 1013.9C1806.04 1013.9 1816.24 1023.65 1816.24 1038.95C1816.24 1054.25 1806.04 1064 1792.39 1064ZM1877.82 1080.05C1900.32 1080.05 1914.12 1070.3 1914.12 1055.3C1914.12 1023.95 1864.62 1038.35 1864.62 1022.15C1864.62 1016.9 1870.02 1013.15 1881.42 1013.15C1889.07 1013.15 1896.72 1014.65 1904.37 1019.15L1911.57 1004.9C1904.37 1000.55 1892.22 998 1881.57 998C1859.97 998 1846.32 1007.9 1846.32 1023.05C1846.32 1055 1895.82 1040.6 1895.82 1055.9C1895.82 1061.45 1890.87 1064.75 1879.02 1064.75C1868.97 1064.75 1858.17 1061.45 1851.12 1056.8L1843.92 1071.05C1851.12 1076.15 1864.47 1080.05 1877.82 1080.05ZM1955.01 1080.05C1977.51 1080.05 1991.31 1070.3 1991.31 1055.3C1991.31 1023.95 1941.81 1038.35 1941.81 1022.15C1941.81 1016.9 1947.21 1013.15 1958.61 1013.15C1966.26 1013.15 1973.91 1014.65 1981.56 1019.15L1988.76 1004.9C1981.56 1000.55 1969.41 998 1958.76 998C1937.16 998 1923.51 1007.9 1923.51 1023.05C1923.51 1055 1973.01 1040.6 1973.01 1055.9C1973.01 1061.45 1968.06 1064.75 1956.21 1064.75C1946.16 1064.75 1935.36 1061.45 1928.31 1056.8L1921.11 1071.05C1928.31 1076.15 1941.66 1080.05 1955.01 1080.05Z" fill="url(#paint19_linear)"/>
<path opacity="0.15" d="M1462.7 1270.5C1479.95 1270.5 1494.65 1264.35 1504.4 1252.95L1491.8 1240.95C1484.15 1249.35 1474.7 1253.4 1463.75 1253.4C1442 1253.4 1426.25 1238.1 1426.25 1216.5C1426.25 1194.9 1442 1179.6 1463.75 1179.6C1474.7 1179.6 1484.15 1183.65 1491.8 1191.9L1504.4 1180.05C1494.65 1168.65 1479.95 1162.5 1462.85 1162.5C1430.6 1162.5 1406.6 1185.15 1406.6 1216.5C1406.6 1247.85 1430.6 1270.5 1462.7 1270.5ZM1577.89 1188.9V1229.4C1577.89 1245.45 1569.04 1253.55 1555.99 1253.55C1544.14 1253.55 1537.24 1246.65 1537.24 1232.1V1188.9H1518.49V1234.65C1518.49 1258.8 1532.44 1270.05 1552.99 1270.05C1563.34 1270.05 1572.79 1266.15 1578.79 1258.8V1269H1596.64V1188.9H1577.89ZM1639.04 1200.6V1188.9H1621.19V1269H1639.94V1230.15C1639.94 1213.8 1648.94 1205.4 1663.19 1205.4C1664.54 1205.4 1665.89 1205.55 1667.54 1205.85V1188C1654.19 1188 1644.44 1192.2 1639.04 1200.6ZM1727.84 1188C1717.64 1188 1708.64 1191.45 1702.19 1198.65V1157.7H1683.44V1269H1701.29V1258.65C1707.59 1266.3 1716.89 1270.05 1727.84 1270.05C1751.24 1270.05 1768.49 1253.85 1768.49 1228.95C1768.49 1204.05 1751.24 1188 1727.84 1188ZM1725.74 1254C1712.24 1254 1701.89 1244.25 1701.89 1228.95C1701.89 1213.65 1712.24 1203.9 1725.74 1203.9C1739.24 1203.9 1749.44 1213.65 1749.44 1228.95C1749.44 1244.25 1739.24 1254 1725.74 1254ZM1862.47 1214.4C1870.57 1210.05 1875.97 1202.1 1875.97 1191.3C1875.97 1174.65 1862.47 1164 1837.27 1164H1788.07V1269H1840.27C1867.27 1269 1881.37 1258.5 1881.37 1240.5C1881.37 1226.85 1873.72 1218 1862.47 1214.4ZM1835.17 1179.3C1848.67 1179.3 1856.32 1184.1 1856.32 1193.85C1856.32 1203.45 1848.67 1208.25 1835.17 1208.25H1807.57V1179.3H1835.17ZM1839.07 1253.7H1807.57V1223.4H1839.07C1853.77 1223.4 1861.72 1228.05 1861.72 1238.55C1861.72 1249.05 1853.77 1253.7 1839.07 1253.7ZM1936.39 1270.05C1961.29 1270.05 1979.14 1252.95 1979.14 1228.95C1979.14 1204.95 1961.29 1188 1936.39 1188C1911.79 1188 1893.79 1204.95 1893.79 1228.95C1893.79 1252.95 1911.79 1270.05 1936.39 1270.05ZM1936.39 1254C1922.89 1254 1912.69 1244.25 1912.69 1228.95C1912.69 1213.65 1922.89 1203.9 1936.39 1203.9C1950.04 1203.9 1960.24 1213.65 1960.24 1228.95C1960.24 1244.25 1950.04 1254 1936.39 1254ZM2021.82 1270.05C2044.32 1270.05 2058.12 1260.3 2058.12 1245.3C2058.12 1213.95 2008.62 1228.35 2008.62 1212.15C2008.62 1206.9 2014.02 1203.15 2025.42 1203.15C2033.07 1203.15 2040.72 1204.65 2048.37 1209.15L2055.57 1194.9C2048.37 1190.55 2036.22 1188 2025.57 1188C2003.97 1188 1990.32 1197.9 1990.32 1213.05C1990.32 1245 2039.82 1230.6 2039.82 1245.9C2039.82 1251.45 2034.87 1254.75 2023.02 1254.75C2012.97 1254.75 2002.17 1251.45 1995.12 1246.8L1987.92 1261.05C1995.12 1266.15 2008.47 1270.05 2021.82 1270.05ZM2099.01 1270.05C2121.51 1270.05 2135.31 1260.3 2135.31 1245.3C2135.31 1213.95 2085.81 1228.35 2085.81 1212.15C2085.81 1206.9 2091.21 1203.15 2102.61 1203.15C2110.26 1203.15 2117.91 1204.65 2125.56 1209.15L2132.76 1194.9C2125.56 1190.55 2113.41 1188 2102.76 1188C2081.16 1188 2067.51 1197.9 2067.51 1213.05C2067.51 1245 2117.01 1230.6 2117.01 1245.9C2117.01 1251.45 2112.06 1254.75 2100.21 1254.75C2090.16 1254.75 2079.36 1251.45 2072.31 1246.8L2065.11 1261.05C2072.31 1266.15 2085.66 1270.05 2099.01 1270.05Z" fill="url(#paint20_linear)"/>
</g>
<defs>
<linearGradient id="paint0_linear" x1="228" y1="0" x2="228" y2="150" gradientUnits="userSpaceOnUse">
<stop stop-color="#757575"/>
<stop offset="1" stop-color="#999999"/>
</linearGradient>
<linearGradient id="paint1_linear" x1="72" y1="190" x2="72" y2="340" gradientUnits="userSpaceOnUse">
<stop stop-color="#757575"/>
<stop offset="1" stop-color="#999999"/>
</linearGradient>
<linearGradient id="paint2_linear" x1="228" y1="380" x2="228" y2="530" gradientUnits="userSpaceOnUse">
<stop stop-color="#757575"/>
<stop offset="1" stop-color="#999999"/>
</linearGradient>
<linearGradient id="paint3_linear" x1="84" y1="570" x2="84" y2="720" gradientUnits="userSpaceOnUse">
<stop stop-color="#757575"/>
<stop offset="1" stop-color="#999999"/>
</linearGradient>
<linearGradient id="paint4_linear" x1="228" y1="760" x2="228" y2="910" gradientUnits="userSpaceOnUse">
<stop stop-color="#757575"/>
<stop offset="1" stop-color="#999999"/>
</linearGradient>
<linearGradient id="paint5_linear" x1="84" y1="950" x2="84" y2="1100" gradientUnits="userSpaceOnUse">
<stop stop-color="#757575"/>
<stop offset="1" stop-color="#999999"/>
</linearGradient>
<linearGradient id="paint6_linear" x1="228" y1="1140" x2="228" y2="1290" gradientUnits="userSpaceOnUse">
<stop stop-color="#757575"/>
<stop offset="1" stop-color="#999999"/>
</linearGradient>
<linearGradient id="paint7_linear" x1="1000" y1="0" x2="1000" y2="150" gradientUnits="userSpaceOnUse">
<stop stop-color="#757575"/>
<stop offset="1" stop-color="#999999"/>
</linearGradient>
<linearGradient id="paint8_linear" x1="844" y1="190" x2="844" y2="340" gradientUnits="userSpaceOnUse">
<stop stop-color="#757575"/>
<stop offset="1" stop-color="#999999"/>
</linearGradient>
<linearGradient id="paint9_linear" x1="1000" y1="380" x2="1000" y2="530" gradientUnits="userSpaceOnUse">
<stop stop-color="#757575"/>
<stop offset="1" stop-color="#999999"/>
</linearGradient>
<linearGradient id="paint10_linear" x1="856" y1="570" x2="856" y2="720" gradientUnits="userSpaceOnUse">
<stop stop-color="#757575"/>
<stop offset="1" stop-color="#999999"/>
</linearGradient>
<linearGradient id="paint11_linear" x1="1000" y1="760" x2="1000" y2="910" gradientUnits="userSpaceOnUse">
<stop stop-color="#757575"/>
<stop offset="1" stop-color="#999999"/>
</linearGradient>
<linearGradient id="paint12_linear" x1="856" y1="950" x2="856" y2="1100" gradientUnits="userSpaceOnUse">
<stop stop-color="#757575"/>
<stop offset="1" stop-color="#999999"/>
</linearGradient>
<linearGradient id="paint13_linear" x1="1000" y1="1140" x2="1000" y2="1290" gradientUnits="userSpaceOnUse">
<stop stop-color="#757575"/>
<stop offset="1" stop-color="#999999"/>
</linearGradient>
<linearGradient id="paint14_linear" x1="1772" y1="0" x2="1772" y2="150" gradientUnits="userSpaceOnUse">
<stop stop-color="#757575"/>
<stop offset="1" stop-color="#999999"/>
</linearGradient>
<linearGradient id="paint15_linear" x1="1616" y1="190" x2="1616" y2="340" gradientUnits="userSpaceOnUse">
<stop stop-color="#757575"/>
<stop offset="1" stop-color="#999999"/>
</linearGradient>
<linearGradient id="paint16_linear" x1="1772" y1="380" x2="1772" y2="530" gradientUnits="userSpaceOnUse">
<stop stop-color="#757575"/>
<stop offset="1" stop-color="#999999"/>
</linearGradient>
<linearGradient id="paint17_linear" x1="1628" y1="570" x2="1628" y2="720" gradientUnits="userSpaceOnUse">
<stop stop-color="#757575"/>
<stop offset="1" stop-color="#999999"/>
</linearGradient>
<linearGradient id="paint18_linear" x1="1772" y1="760" x2="1772" y2="910" gradientUnits="userSpaceOnUse">
<stop stop-color="#757575"/>
<stop offset="1" stop-color="#999999"/>
</linearGradient>
<linearGradient id="paint19_linear" x1="1628" y1="950" x2="1628" y2="1100" gradientUnits="userSpaceOnUse">
<stop stop-color="#757575"/>
<stop offset="1" stop-color="#999999"/>
</linearGradient>
<linearGradient id="paint20_linear" x1="1772" y1="1140" x2="1772" y2="1290" gradientUnits="userSpaceOnUse">
<stop stop-color="#757575"/>
<stop offset="1" stop-color="#999999"/>
</linearGradient>
<clipPath id="clip0">
<rect width="2000" height="1200" fill="white"/>
</clipPath>
</defs>
</svg>
