<svg width="700" height="510" viewBox="0 0 700 510" fill="none" xmlns="http://www.w3.org/2000/svg">
<rect width="700" height="510" fill="white"/>
<line x1="348.5" y1="460" x2="348.5" y2="50" stroke="#092348" stroke-width="3"/>
<line x1="145" y1="253.5" x2="555" y2="253.5" stroke="#092348" stroke-width="3"/>
<path d="M310.368 34H311.824V22.848H310.368V27.744H304.688V22.848H303.232V34H304.688V28.944H310.368V34ZM314.295 34H315.751V25.232H314.295V34ZM315.047 23.808C315.575 23.808 316.007 23.376 316.007 22.816C316.007 22.256 315.575 21.824 315.047 21.824C314.487 21.824 314.055 22.256 314.055 22.816C314.055 23.376 314.487 23.808 315.047 23.808ZM317.688 29.584C317.688 32.304 319.496 34.144 321.848 34.144C323.448 34.144 324.584 33.296 325.112 32.352V34.192C325.112 36.064 323.944 37.056 322.392 37.056C320.952 37.056 319.912 36.336 319.592 35.28H318.152C318.44 37.152 320.088 38.32 322.392 38.32C324.968 38.32 326.584 36.608 326.584 34.192V25.232H325.112V26.832C324.6 25.888 323.448 25.088 321.848 25.088C319.496 25.088 317.688 26.848 317.688 29.584ZM325.112 29.6C325.112 31.664 323.736 32.864 322.136 32.864C320.536 32.864 319.176 31.648 319.176 29.584C319.176 27.52 320.536 26.352 322.136 26.352C323.736 26.352 325.112 27.568 325.112 29.6ZM329.045 34H330.501V29.152C330.501 27.264 331.525 26.336 333.013 26.336C334.485 26.336 335.461 27.248 335.461 29.04V34H336.901V28.832C336.901 26.32 335.349 25.072 333.397 25.072C332.165 25.072 331.077 25.568 330.501 26.496V22.16H329.045V34ZM345.001 28.144V24.048H347.145C348.809 24.048 349.513 24.816 349.513 26.112C349.513 27.36 348.809 28.144 347.145 28.144H345.001ZM351.001 26.112C351.001 24.288 349.769 22.848 347.145 22.848H343.545V34H345.001V29.344H347.145C349.913 29.344 351.001 27.808 351.001 26.112ZM354.266 29.232C354.266 27.2 355.322 26.576 356.714 26.576H357.098V25.072C355.706 25.072 354.762 25.68 354.266 26.656V25.232H352.81V34H354.266V29.232ZM358.779 34H360.235V25.232H358.779V34ZM359.531 23.808C360.059 23.808 360.491 23.376 360.491 22.816C360.491 22.256 360.059 21.824 359.531 21.824C358.971 21.824 358.539 22.256 358.539 22.816C358.539 23.376 358.971 23.808 359.531 23.808ZM371.036 29.6C371.036 26.832 369.1 25.088 366.604 25.088C364.124 25.088 362.172 26.832 362.172 29.6C362.172 32.384 364.06 34.144 366.54 34.144C369.036 34.144 371.036 32.384 371.036 29.6ZM363.66 29.6C363.66 27.392 365.052 26.352 366.588 26.352C368.092 26.352 369.548 27.392 369.548 29.6C369.548 31.824 368.06 32.864 366.54 32.864C365.02 32.864 363.66 31.824 363.66 29.6ZM374.407 29.232C374.407 27.2 375.463 26.576 376.855 26.576H377.239V25.072C375.847 25.072 374.903 25.68 374.407 26.656V25.232H372.951V34H374.407V29.232ZM378.92 34H380.376V25.232H378.92V34ZM379.672 23.808C380.2 23.808 380.632 23.376 380.632 22.816C380.632 22.256 380.2 21.824 379.672 21.824C379.112 21.824 378.68 22.256 378.68 22.816C378.68 23.376 379.112 23.808 379.672 23.808ZM383.177 31.6C383.177 33.36 384.057 34 385.609 34H386.921V32.768H385.849C384.953 32.768 384.633 32.464 384.633 31.6V26.432H386.921V25.232H384.633V23.024H383.177V25.232H382.041V26.432H383.177V31.6ZM392.013 32.336L389.261 25.232H387.645L391.181 33.904L389.453 38.128H390.957L396.237 25.232H394.733L392.013 32.336Z" fill="black"/>
<path d="M306.232 476.848V488H311.592V486.816H307.688V476.848H306.232ZM321.458 483.6C321.458 480.832 319.522 479.088 317.026 479.088C314.546 479.088 312.594 480.832 312.594 483.6C312.594 486.384 314.482 488.144 316.962 488.144C319.458 488.144 321.458 486.384 321.458 483.6ZM314.082 483.6C314.082 481.392 315.474 480.352 317.01 480.352C318.514 480.352 319.97 481.392 319.97 483.6C319.97 485.824 318.482 486.864 316.962 486.864C315.442 486.864 314.082 485.824 314.082 483.6ZM325.085 488H326.589L328.701 481.04L330.813 488H332.317L335.053 479.232H333.613L331.629 486.608L329.501 479.232H328.013L325.837 486.592L323.821 479.232H322.333L325.085 488ZM342.219 482.144V478.048H344.363C346.027 478.048 346.731 478.816 346.731 480.112C346.731 481.36 346.027 482.144 344.363 482.144H342.219ZM348.219 480.112C348.219 478.288 346.987 476.848 344.363 476.848H340.763V488H342.219V483.344H344.363C347.131 483.344 348.219 481.808 348.219 480.112ZM351.485 483.232C351.485 481.2 352.541 480.576 353.933 480.576H354.317V479.072C352.925 479.072 351.981 479.68 351.485 480.656V479.232H350.029V488H351.485V483.232ZM355.998 488H357.454V479.232H355.998V488ZM356.75 477.808C357.278 477.808 357.71 477.376 357.71 476.816C357.71 476.256 357.278 475.824 356.75 475.824C356.19 475.824 355.758 476.256 355.758 476.816C355.758 477.376 356.19 477.808 356.75 477.808ZM368.255 483.6C368.255 480.832 366.319 479.088 363.823 479.088C361.343 479.088 359.391 480.832 359.391 483.6C359.391 486.384 361.279 488.144 363.759 488.144C366.255 488.144 368.255 486.384 368.255 483.6ZM360.879 483.6C360.879 481.392 362.271 480.352 363.807 480.352C365.311 480.352 366.767 481.392 366.767 483.6C366.767 485.824 365.279 486.864 363.759 486.864C362.239 486.864 360.879 485.824 360.879 483.6ZM371.626 483.232C371.626 481.2 372.682 480.576 374.074 480.576H374.458V479.072C373.066 479.072 372.122 479.68 371.626 480.656V479.232H370.17V488H371.626V483.232ZM376.138 488H377.594V479.232H376.138V488ZM376.89 477.808C377.418 477.808 377.85 477.376 377.85 476.816C377.85 476.256 377.418 475.824 376.89 475.824C376.33 475.824 375.898 476.256 375.898 476.816C375.898 477.376 376.33 477.808 376.89 477.808ZM380.396 485.6C380.396 487.36 381.276 488 382.828 488H384.14V486.768H383.068C382.172 486.768 381.852 486.464 381.852 485.6V480.432H384.14V479.232H381.852V477.024H380.396V479.232H379.26V480.432H380.396V485.6ZM389.232 486.336L386.48 479.232H384.864L388.4 487.904L386.672 492.128H388.176L393.456 479.232H391.952L389.232 486.336Z" fill="black"/>
<path d="M60.232 248.848V260H65.592V258.816H61.688V248.848H60.232ZM75.4583 255.6C75.4583 252.832 73.5223 251.088 71.0263 251.088C68.5463 251.088 66.5943 252.832 66.5943 255.6C66.5943 258.384 68.4823 260.144 70.9623 260.144C73.4583 260.144 75.4583 258.384 75.4583 255.6ZM68.0823 255.6C68.0823 253.392 69.4743 252.352 71.0103 252.352C72.5143 252.352 73.9703 253.392 73.9703 255.6C73.9703 257.824 72.4823 258.864 70.9623 258.864C69.4423 258.864 68.0823 257.824 68.0823 255.6ZM79.0846 260H80.5886L82.7006 253.04L84.8126 260H86.3166L89.0526 251.232H87.6126L85.6286 258.608L83.5006 251.232H82.0126L79.8366 258.592L77.8206 251.232H76.3326L79.0846 260ZM100.763 248.832H94.7633V260H100.763V258.8H96.2193V254.96H100.283V253.76H96.2193V250.032H100.763V248.832ZM103.238 260H104.694V252.432H106.534V251.232H104.694V250.608C104.694 249.472 105.126 248.992 106.438 248.992V247.776C104.198 247.776 103.238 248.656 103.238 250.608V251.232H102.102V252.432H103.238V260ZM108.504 260H109.96V252.432H111.8V251.232H109.96V250.608C109.96 249.472 110.392 248.992 111.704 248.992V247.776C109.464 247.776 108.504 248.656 108.504 250.608V251.232H107.368V252.432H108.504V260ZM121.818 255.6C121.818 252.832 119.882 251.088 117.386 251.088C114.906 251.088 112.954 252.832 112.954 255.6C112.954 258.384 114.842 260.144 117.322 260.144C119.818 260.144 121.818 258.384 121.818 255.6ZM114.442 255.6C114.442 253.392 115.834 252.352 117.37 252.352C118.874 252.352 120.33 253.392 120.33 255.6C120.33 257.824 118.842 258.864 117.322 258.864C115.802 258.864 114.442 257.824 114.442 255.6ZM125.188 255.232C125.188 253.2 126.244 252.576 127.636 252.576H128.02V251.072C126.628 251.072 125.684 251.68 125.188 252.656V251.232H123.732V260H125.188V255.232ZM130.021 257.6C130.021 259.36 130.901 260 132.453 260H133.765V258.768H132.693C131.797 258.768 131.477 258.464 131.477 257.6V252.432H133.765V251.232H131.477V249.024H130.021V251.232H128.885V252.432H130.021V257.6Z" fill="black"/>
<path d="M573.368 260H574.824V248.848H573.368V253.744H567.688V248.848H566.232V260H567.688V254.944H573.368V260ZM577.295 260H578.751V251.232H577.295V260ZM578.047 249.808C578.575 249.808 579.007 249.376 579.007 248.816C579.007 248.256 578.575 247.824 578.047 247.824C577.487 247.824 577.055 248.256 577.055 248.816C577.055 249.376 577.487 249.808 578.047 249.808ZM580.688 255.584C580.688 258.304 582.496 260.144 584.848 260.144C586.448 260.144 587.584 259.296 588.112 258.352V260.192C588.112 262.064 586.944 263.056 585.392 263.056C583.952 263.056 582.912 262.336 582.592 261.28H581.152C581.44 263.152 583.088 264.32 585.392 264.32C587.968 264.32 589.584 262.608 589.584 260.192V251.232H588.112V252.832C587.6 251.888 586.448 251.088 584.848 251.088C582.496 251.088 580.688 252.848 580.688 255.584ZM588.112 255.6C588.112 257.664 586.736 258.864 585.136 258.864C583.536 258.864 582.176 257.648 582.176 255.584C582.176 253.52 583.536 252.352 585.136 252.352C586.736 252.352 588.112 253.568 588.112 255.6ZM592.045 260H593.501V255.152C593.501 253.264 594.525 252.336 596.013 252.336C597.485 252.336 598.461 253.248 598.461 255.04V260H599.901V254.832C599.901 252.32 598.349 251.072 596.397 251.072C595.165 251.072 594.077 251.568 593.501 252.496V248.16H592.045V260ZM612.545 248.832H606.545V260H612.545V258.8H608.001V254.96H612.065V253.76H608.001V250.032H612.545V248.832ZM615.02 260H616.476V252.432H618.316V251.232H616.476V250.608C616.476 249.472 616.908 248.992 618.22 248.992V247.776C615.98 247.776 615.02 248.656 615.02 250.608V251.232H613.884V252.432H615.02V260ZM620.285 260H621.741V252.432H623.581V251.232H621.741V250.608C621.741 249.472 622.173 248.992 623.485 248.992V247.776C621.245 247.776 620.285 248.656 620.285 250.608V251.232H619.149V252.432H620.285V260ZM633.599 255.6C633.599 252.832 631.663 251.088 629.167 251.088C626.687 251.088 624.735 252.832 624.735 255.6C624.735 258.384 626.623 260.144 629.103 260.144C631.599 260.144 633.599 258.384 633.599 255.6ZM626.223 255.6C626.223 253.392 627.615 252.352 629.151 252.352C630.655 252.352 632.111 253.392 632.111 255.6C632.111 257.824 630.623 258.864 629.103 258.864C627.583 258.864 626.223 257.824 626.223 255.6ZM636.969 255.232C636.969 253.2 638.025 252.576 639.417 252.576H639.801V251.072C638.409 251.072 637.465 251.68 636.969 252.656V251.232H635.513V260H636.969V255.232ZM641.802 257.6C641.802 259.36 642.682 260 644.234 260H645.546V258.768H644.474C643.578 258.768 643.258 258.464 643.258 257.6V252.432H645.546V251.232H643.258V249.024H641.802V251.232H640.666V252.432H641.802V257.6Z" fill="black"/>
<path d="M199.544 325.832V334.696L193.688 325.832H192.232V337H193.688V328.12L199.544 337H201V325.832H199.544ZM211.802 332.6C211.802 329.832 209.866 328.088 207.37 328.088C204.89 328.088 202.938 329.832 202.938 332.6C202.938 335.384 204.826 337.144 207.306 337.144C209.802 337.144 211.802 335.384 211.802 332.6ZM204.426 332.6C204.426 330.392 205.818 329.352 207.354 329.352C208.858 329.352 210.314 330.392 210.314 332.6C210.314 334.824 208.826 335.864 207.306 335.864C205.786 335.864 204.426 334.824 204.426 332.6ZM214.036 334.6C214.036 336.36 214.916 337 216.468 337H217.78V335.768H216.708C215.812 335.768 215.492 335.464 215.492 334.6V329.432H217.78V328.232H215.492V326.024H214.036V328.232H212.9V329.432H214.036V334.6ZM219.545 337H221.001V328.232H219.545V337ZM220.297 326.808C220.825 326.808 221.257 326.376 221.257 325.816C221.257 325.256 220.825 324.824 220.297 324.824C219.737 324.824 219.305 325.256 219.305 325.816C219.305 326.376 219.737 326.808 220.297 326.808ZM223.754 337H225.21V329.432H227.05V328.232H225.21V327.608C225.21 326.472 225.642 325.992 226.954 325.992V324.776C224.714 324.776 223.754 325.656 223.754 327.608V328.232H222.618V329.432H223.754V337ZM228.748 337H230.204V328.232H228.748V337ZM229.5 326.808C230.028 326.808 230.46 326.376 230.46 325.816C230.46 325.256 230.028 324.824 229.5 324.824C228.94 324.824 228.508 325.256 228.508 325.816C228.508 326.376 228.94 326.808 229.5 326.808ZM232.141 332.6C232.141 335.384 233.917 337.144 236.413 337.144C238.589 337.144 240.013 335.928 240.461 334.184H238.893C238.573 335.288 237.709 335.912 236.413 335.912C234.813 335.912 233.629 334.776 233.629 332.6C233.629 330.456 234.813 329.32 236.413 329.32C237.709 329.32 238.589 329.992 238.893 331.048H240.461C240.013 329.208 238.589 328.088 236.413 328.088C233.917 328.088 232.141 329.848 232.141 332.6ZM241.86 332.584C241.86 335.304 243.668 337.144 246.004 337.144C247.62 337.144 248.756 336.312 249.284 335.368V337H250.756V328.232H249.284V329.832C248.772 328.92 247.652 328.088 246.02 328.088C243.668 328.088 241.86 329.848 241.86 332.584ZM249.284 332.6C249.284 334.664 247.908 335.864 246.308 335.864C244.708 335.864 243.348 334.648 243.348 332.584C243.348 330.52 244.708 329.352 246.308 329.352C247.908 329.352 249.284 330.568 249.284 332.6ZM253.536 334.6C253.536 336.36 254.416 337 255.968 337H257.28V335.768H256.208C255.312 335.768 254.992 335.464 254.992 334.6V329.432H257.28V328.232H254.992V326.024H253.536V328.232H252.4V329.432H253.536V334.6ZM259.045 337H260.501V328.232H259.045V337ZM259.797 326.808C260.325 326.808 260.757 326.376 260.757 325.816C260.757 325.256 260.325 324.824 259.797 324.824C259.237 324.824 258.805 325.256 258.805 325.816C258.805 326.376 259.237 326.808 259.797 326.808ZM271.302 332.6C271.302 329.832 269.366 328.088 266.87 328.088C264.39 328.088 262.438 329.832 262.438 332.6C262.438 335.384 264.326 337.144 266.806 337.144C269.302 337.144 271.302 335.384 271.302 332.6ZM263.926 332.6C263.926 330.392 265.318 329.352 266.854 329.352C268.358 329.352 269.814 330.392 269.814 332.6C269.814 334.824 268.326 335.864 266.806 335.864C265.286 335.864 263.926 334.824 263.926 332.6ZM279.632 337H281.072V331.832C281.072 329.32 279.52 328.072 277.488 328.072C276.304 328.072 275.248 328.568 274.672 329.48V328.232H273.216V337H274.672V332.152C274.672 330.264 275.696 329.336 277.184 329.336C278.656 329.336 279.632 330.248 279.632 332.04V337ZM289.755 334.616C289.691 331.48 284.603 332.616 284.603 330.536C284.603 329.832 285.243 329.32 286.315 329.32C287.483 329.32 288.155 329.96 288.219 330.84H289.675C289.579 329.128 288.299 328.088 286.363 328.088C284.411 328.088 283.147 329.192 283.147 330.536C283.147 333.8 288.331 332.664 288.331 334.616C288.331 335.336 287.691 335.912 286.539 335.912C285.307 335.912 284.555 335.272 284.475 334.424H282.971C283.067 336.024 284.507 337.144 286.555 337.144C288.491 337.144 289.755 336.056 289.755 334.616Z" fill="black"/>
<path d="M399.688 331.144V327.048H401.832C403.496 327.048 404.2 327.816 404.2 329.112C404.2 330.36 403.496 331.144 401.832 331.144H399.688ZM405.688 329.112C405.688 327.288 404.456 325.848 401.832 325.848H398.232V337H399.688V332.344H401.832C404.6 332.344 405.688 330.808 405.688 329.112ZM408.954 332.232C408.954 330.2 410.01 329.576 411.402 329.576H411.786V328.072C410.394 328.072 409.45 328.68 408.954 329.656V328.232H407.498V337H408.954V332.232ZM421.786 332.6C421.786 329.832 419.85 328.088 417.354 328.088C414.874 328.088 412.922 329.832 412.922 332.6C412.922 335.384 414.81 337.144 417.29 337.144C419.786 337.144 421.786 335.384 421.786 332.6ZM414.41 332.6C414.41 330.392 415.802 329.352 417.338 329.352C418.842 329.352 420.298 330.392 420.298 332.6C420.298 334.824 418.81 335.864 417.29 335.864C415.77 335.864 414.41 334.824 414.41 332.6ZM423.973 337H425.429V329.432H427.269V328.232H425.429V327.608C425.429 326.472 425.861 325.992 427.173 325.992V324.776C424.933 324.776 423.973 325.656 423.973 327.608V328.232H422.837V329.432H423.973V337ZM428.966 337H430.422V328.232H428.966V337ZM429.718 326.808C430.246 326.808 430.678 326.376 430.678 325.816C430.678 325.256 430.246 324.824 429.718 324.824C429.158 324.824 428.726 325.256 428.726 325.816C428.726 326.376 429.158 326.808 429.718 326.808ZM432.904 337H434.36V325.16H432.904V337ZM440.569 329.32C442.073 329.32 443.353 330.264 443.337 331.976H437.801C437.961 330.264 439.145 329.32 440.569 329.32ZM444.665 334.296H443.097C442.777 335.24 441.945 335.912 440.633 335.912C439.145 335.912 437.897 334.936 437.785 333.16H444.793C444.825 332.856 444.841 332.6 444.841 332.28C444.841 329.88 443.177 328.088 440.633 328.088C438.073 328.088 436.297 329.832 436.297 332.6C436.297 335.384 438.137 337.144 440.633 337.144C442.809 337.144 444.217 335.896 444.665 334.296Z" fill="black"/>
<path d="M398.232 369H399.688V360.728L403.384 369H404.408L408.088 360.744V369H409.544V357.928H407.992L403.896 367.08L399.8 357.928H398.232V369ZM415.741 361.32C417.245 361.32 418.525 362.264 418.509 363.976H412.973C413.133 362.264 414.317 361.32 415.741 361.32ZM419.837 366.296H418.269C417.949 367.24 417.117 367.912 415.805 367.912C414.317 367.912 413.069 366.936 412.957 365.16H419.965C419.997 364.856 420.013 364.6 420.013 364.28C420.013 361.88 418.349 360.088 415.805 360.088C413.245 360.088 411.469 361.832 411.469 364.6C411.469 367.384 413.309 369.144 415.805 369.144C417.981 369.144 419.389 367.896 419.837 366.296ZM428.239 366.616C428.175 363.48 423.087 364.616 423.087 362.536C423.087 361.832 423.727 361.32 424.799 361.32C425.967 361.32 426.639 361.96 426.703 362.84H428.159C428.063 361.128 426.783 360.088 424.847 360.088C422.895 360.088 421.631 361.192 421.631 362.536C421.631 365.8 426.815 364.664 426.815 366.616C426.815 367.336 426.175 367.912 425.023 367.912C423.791 367.912 423.039 367.272 422.959 366.424H421.455C421.551 368.024 422.991 369.144 425.039 369.144C426.975 369.144 428.239 368.056 428.239 366.616ZM436.599 366.616C436.535 363.48 431.447 364.616 431.447 362.536C431.447 361.832 432.087 361.32 433.159 361.32C434.327 361.32 434.999 361.96 435.063 362.84H436.519C436.423 361.128 435.143 360.088 433.207 360.088C431.255 360.088 429.991 361.192 429.991 362.536C429.991 365.8 435.175 364.664 435.175 366.616C435.175 367.336 434.535 367.912 433.383 367.912C432.151 367.912 431.399 367.272 431.319 366.424H429.815C429.911 368.024 431.351 369.144 433.399 369.144C435.335 369.144 436.599 368.056 436.599 366.616ZM438.11 364.584C438.11 367.304 439.918 369.144 442.254 369.144C443.87 369.144 445.006 368.312 445.534 367.368V369H447.006V360.232H445.534V361.832C445.022 360.92 443.902 360.088 442.27 360.088C439.918 360.088 438.11 361.848 438.11 364.584ZM445.534 364.6C445.534 366.664 444.158 367.864 442.558 367.864C440.958 367.864 439.598 366.648 439.598 364.584C439.598 362.52 440.958 361.352 442.558 361.352C444.158 361.352 445.534 362.568 445.534 364.6ZM448.922 364.584C448.922 367.304 450.73 369.144 453.082 369.144C454.682 369.144 455.818 368.296 456.346 367.352V369.192C456.346 371.064 455.178 372.056 453.626 372.056C452.186 372.056 451.146 371.336 450.826 370.28H449.386C449.674 372.152 451.322 373.32 453.626 373.32C456.202 373.32 457.818 371.608 457.818 369.192V360.232H456.346V361.832C455.834 360.888 454.682 360.088 453.082 360.088C450.73 360.088 448.922 361.848 448.922 364.584ZM456.346 364.6C456.346 366.664 454.97 367.864 453.37 367.864C451.77 367.864 450.41 366.648 450.41 364.584C450.41 362.52 451.77 361.352 453.37 361.352C454.97 361.352 456.346 362.568 456.346 364.6ZM464.007 361.32C465.511 361.32 466.791 362.264 466.775 363.976H461.239C461.399 362.264 462.583 361.32 464.007 361.32ZM468.103 366.296H466.535C466.215 367.24 465.383 367.912 464.071 367.912C462.583 367.912 461.335 366.936 461.223 365.16H468.231C468.263 364.856 468.279 364.6 468.279 364.28C468.279 361.88 466.615 360.088 464.071 360.088C461.511 360.088 459.735 361.832 459.735 364.6C459.735 367.384 461.575 369.144 464.071 369.144C466.247 369.144 467.655 367.896 468.103 366.296ZM476.505 366.616C476.441 363.48 471.353 364.616 471.353 362.536C471.353 361.832 471.993 361.32 473.065 361.32C474.233 361.32 474.905 361.96 474.969 362.84H476.425C476.329 361.128 475.049 360.088 473.113 360.088C471.161 360.088 469.897 361.192 469.897 362.536C469.897 365.8 475.081 364.664 475.081 366.616C475.081 367.336 474.441 367.912 473.289 367.912C472.057 367.912 471.305 367.272 471.225 366.424H469.721C469.817 368.024 471.257 369.144 473.305 369.144C475.241 369.144 476.505 368.056 476.505 366.616ZM478.176 371.72H479.616L484 353.928H482.544L478.176 371.72ZM485.626 363.416C485.626 366.76 488.074 369.096 491.194 369.096C493.61 369.096 495.53 367.896 496.362 365.752H494.618C494.01 367.08 492.826 367.832 491.194 367.832C488.858 367.832 487.114 366.136 487.114 363.416C487.114 360.68 488.858 358.984 491.194 358.984C492.826 358.984 494.01 359.736 494.618 361.08H496.362C495.53 358.92 493.61 357.704 491.194 357.704C488.074 357.704 485.626 360.072 485.626 363.416ZM498.529 369H499.985V364.152C499.985 362.264 501.009 361.336 502.497 361.336C503.969 361.336 504.945 362.248 504.945 364.04V369H506.385V363.832C506.385 361.32 504.833 360.072 502.881 360.072C501.649 360.072 500.561 360.568 499.985 361.496V357.16H498.529V369ZM508.219 364.584C508.219 367.304 510.027 369.144 512.363 369.144C513.979 369.144 515.115 368.312 515.643 367.368V369H517.115V360.232H515.643V361.832C515.131 360.92 514.011 360.088 512.379 360.088C510.027 360.088 508.219 361.848 508.219 364.584ZM515.643 364.6C515.643 366.664 514.267 367.864 512.667 367.864C511.067 367.864 509.707 366.648 509.707 364.584C509.707 362.52 511.067 361.352 512.667 361.352C514.267 361.352 515.643 362.568 515.643 364.6ZM519.896 366.6C519.896 368.36 520.776 369 522.328 369H523.64V367.768H522.568C521.672 367.768 521.352 367.464 521.352 366.6V361.432H523.64V360.232H521.352V358.024H519.896V360.232H518.76V361.432H519.896V366.6Z" fill="black"/>
<path d="M399.688 189.144V185.048H401.832C403.496 185.048 404.2 185.816 404.2 187.112C404.2 188.36 403.496 189.144 401.832 189.144H399.688ZM405.688 187.112C405.688 185.288 404.456 183.848 401.832 183.848H398.232V195H399.688V190.344H401.832C404.6 190.344 405.688 188.808 405.688 187.112ZM415.274 186.232H413.818V191.048C413.818 192.936 412.81 193.864 411.306 193.864C409.834 193.864 408.858 192.952 408.858 191.176V186.232H407.418V191.368C407.418 193.88 409.002 195.128 411.018 195.128C412.186 195.128 413.258 194.616 413.818 193.704V195H415.274V186.232ZM419.188 190.232C419.188 188.2 420.244 187.576 421.636 187.576H422.02V186.072C420.628 186.072 419.684 186.68 419.188 187.656V186.232H417.732V195H419.188V190.232ZM423.157 190.6C423.157 193.384 424.933 195.144 427.429 195.144C429.605 195.144 431.029 193.928 431.477 192.184H429.909C429.589 193.288 428.725 193.912 427.429 193.912C425.829 193.912 424.645 192.776 424.645 190.6C424.645 188.456 425.829 187.32 427.429 187.32C428.725 187.32 429.605 187.992 429.909 189.048H431.477C431.029 187.208 429.605 186.088 427.429 186.088C424.933 186.088 423.157 187.848 423.157 190.6ZM433.42 195H434.876V190.152C434.876 188.264 435.9 187.336 437.388 187.336C438.86 187.336 439.836 188.248 439.836 190.04V195H441.276V189.832C441.276 187.32 439.724 186.072 437.772 186.072C436.54 186.072 435.452 186.568 434.876 187.496V183.16H433.42V195ZM443.11 190.584C443.11 193.304 444.918 195.144 447.254 195.144C448.87 195.144 450.006 194.312 450.534 193.368V195H452.006V186.232H450.534V187.832C450.022 186.92 448.902 186.088 447.27 186.088C444.918 186.088 443.11 187.848 443.11 190.584ZM450.534 190.6C450.534 192.664 449.158 193.864 447.558 193.864C445.958 193.864 444.598 192.648 444.598 190.584C444.598 188.52 445.958 187.352 447.558 187.352C449.158 187.352 450.534 188.568 450.534 190.6ZM460.77 192.616C460.706 189.48 455.618 190.616 455.618 188.536C455.618 187.832 456.258 187.32 457.33 187.32C458.498 187.32 459.17 187.96 459.234 188.84H460.69C460.594 187.128 459.314 186.088 457.378 186.088C455.426 186.088 454.162 187.192 454.162 188.536C454.162 191.8 459.346 190.664 459.346 192.616C459.346 193.336 458.706 193.912 457.554 193.912C456.322 193.912 455.57 193.272 455.49 192.424H453.986C454.082 194.024 455.522 195.144 457.57 195.144C459.506 195.144 460.77 194.056 460.77 192.616ZM462.826 195H464.282V186.232H462.826V195ZM463.578 184.808C464.106 184.808 464.538 184.376 464.538 183.816C464.538 183.256 464.106 182.824 463.578 182.824C463.018 182.824 462.586 183.256 462.586 183.816C462.586 184.376 463.018 184.808 463.578 184.808ZM473.179 195H474.619V189.832C474.619 187.32 473.067 186.072 471.035 186.072C469.851 186.072 468.795 186.568 468.219 187.48V186.232H466.763V195H468.219V190.152C468.219 188.264 469.243 187.336 470.731 187.336C472.203 187.336 473.179 188.248 473.179 190.04V195ZM476.454 190.584C476.454 193.304 478.262 195.144 480.614 195.144C482.214 195.144 483.35 194.296 483.878 193.352V195.192C483.878 197.064 482.71 198.056 481.158 198.056C479.718 198.056 478.678 197.336 478.358 196.28H476.918C477.206 198.152 478.854 199.32 481.158 199.32C483.734 199.32 485.35 197.608 485.35 195.192V186.232H483.878V187.832C483.366 186.888 482.214 186.088 480.614 186.088C478.262 186.088 476.454 187.848 476.454 190.584ZM483.878 190.6C483.878 192.664 482.502 193.864 480.902 193.864C479.302 193.864 477.942 192.648 477.942 190.584C477.942 188.52 479.302 187.352 480.902 187.352C482.502 187.352 483.878 188.568 483.878 190.6Z" fill="black"/>
<path d="M398.232 161H399.688V152.728L403.384 161H404.408L408.088 152.744V161H409.544V149.928H407.992L403.896 159.08L399.8 149.928H398.232V161ZM411.469 156.584C411.469 159.304 413.277 161.144 415.613 161.144C417.229 161.144 418.365 160.312 418.893 159.368V161H420.365V152.232H418.893V153.832C418.381 152.92 417.261 152.088 415.629 152.088C413.277 152.088 411.469 153.848 411.469 156.584ZM418.893 156.6C418.893 158.664 417.517 159.864 415.917 159.864C414.317 159.864 412.957 158.648 412.957 156.584C412.957 154.52 414.317 153.352 415.917 153.352C417.517 153.352 418.893 154.568 418.893 156.6ZM424.282 156.232C424.282 154.2 425.338 153.576 426.73 153.576H427.114V152.072C425.722 152.072 424.778 152.68 424.282 153.656V152.232H422.826V161H424.282V156.232ZM428.795 161H430.251V157.128L433.691 161H435.675L431.531 156.6L435.659 152.232H433.627L430.251 156.12V149.16H428.795V161ZM440.757 153.32C442.261 153.32 443.541 154.264 443.525 155.976H437.989C438.149 154.264 439.333 153.32 440.757 153.32ZM444.853 158.296H443.285C442.965 159.24 442.133 159.912 440.821 159.912C439.333 159.912 438.085 158.936 437.973 157.16H444.981C445.013 156.856 445.029 156.6 445.029 156.28C445.029 153.88 443.365 152.088 440.821 152.088C438.261 152.088 436.485 153.832 436.485 156.6C436.485 159.384 438.325 161.144 440.821 161.144C442.997 161.144 444.405 159.896 444.853 158.296ZM447.271 158.6C447.271 160.36 448.151 161 449.703 161H451.015V159.768H449.943C449.047 159.768 448.727 159.464 448.727 158.6V153.432H451.015V152.232H448.727V150.024H447.271V152.232H446.135V153.432H447.271V158.6Z" fill="black"/>
<path d="M408.888 121.416C408.888 118.072 406.44 115.72 403.288 115.72C400.152 115.72 397.688 118.072 397.688 121.416C397.688 124.76 400.152 127.112 403.288 127.112C406.44 127.112 408.888 124.76 408.888 121.416ZM399.176 121.416C399.176 118.68 400.936 116.984 403.288 116.984C405.64 116.984 407.4 118.68 407.4 121.416C407.4 124.136 405.64 125.848 403.288 125.848C400.936 125.848 399.176 124.136 399.176 121.416ZM412.266 122.232C412.266 120.2 413.322 119.576 414.714 119.576H415.098V118.072C413.706 118.072 412.762 118.68 412.266 119.656V118.232H410.81V127H412.266V122.232ZM416.235 122.584C416.235 125.304 418.043 127.144 420.395 127.144C421.995 127.144 423.131 126.296 423.659 125.352V127.192C423.659 129.064 422.491 130.056 420.939 130.056C419.499 130.056 418.459 129.336 418.139 128.28H416.699C416.987 130.152 418.635 131.32 420.939 131.32C423.515 131.32 425.131 129.608 425.131 127.192V118.232H423.659V119.832C423.147 118.888 421.995 118.088 420.395 118.088C418.043 118.088 416.235 119.848 416.235 122.584ZM423.659 122.6C423.659 124.664 422.283 125.864 420.683 125.864C419.083 125.864 417.723 124.648 417.723 122.584C417.723 120.52 419.083 119.352 420.683 119.352C422.283 119.352 423.659 120.568 423.659 122.6ZM427.047 122.584C427.047 125.304 428.855 127.144 431.191 127.144C432.807 127.144 433.943 126.312 434.471 125.368V127H435.943V118.232H434.471V119.832C433.959 118.92 432.839 118.088 431.207 118.088C428.855 118.088 427.047 119.848 427.047 122.584ZM434.471 122.6C434.471 124.664 433.095 125.864 431.495 125.864C429.895 125.864 428.535 124.648 428.535 122.584C428.535 120.52 429.895 119.352 431.495 119.352C433.095 119.352 434.471 120.568 434.471 122.6ZM444.82 127H446.26V121.832C446.26 119.32 444.708 118.072 442.676 118.072C441.492 118.072 440.436 118.568 439.86 119.48V118.232H438.404V127H439.86V122.152C439.86 120.264 440.884 119.336 442.372 119.336C443.844 119.336 444.82 120.248 444.82 122.04V127ZM448.638 127H450.094V118.232H448.638V127ZM449.39 116.808C449.918 116.808 450.35 116.376 450.35 115.816C450.35 115.256 449.918 114.824 449.39 114.824C448.83 114.824 448.398 115.256 448.398 115.816C448.398 116.376 448.83 116.808 449.39 116.808ZM457.936 118.232H452.032V119.416H456.256L452 125.8V127H457.968V125.8H453.664L457.936 119.416V118.232ZM463.585 119.32C465.089 119.32 466.369 120.264 466.353 121.976H460.817C460.977 120.264 462.161 119.32 463.585 119.32ZM467.681 124.296H466.113C465.793 125.24 464.961 125.912 463.649 125.912C462.161 125.912 460.913 124.936 460.801 123.16H467.809C467.841 122.856 467.857 122.6 467.857 122.28C467.857 119.88 466.193 118.088 463.649 118.088C461.089 118.088 459.313 119.832 459.313 122.6C459.313 125.384 461.153 127.144 463.649 127.144C465.825 127.144 467.233 125.896 467.681 124.296ZM469.235 122.584C469.235 125.304 471.043 127.144 473.395 127.144C474.995 127.144 476.131 126.328 476.659 125.352V127H478.131V115.16H476.659V119.8C476.051 118.792 474.787 118.088 473.411 118.088C471.043 118.088 469.235 119.848 469.235 122.584ZM476.659 122.6C476.659 124.664 475.283 125.864 473.683 125.864C472.083 125.864 470.723 124.648 470.723 122.584C470.723 120.52 472.083 119.352 473.683 119.352C475.283 119.352 476.659 120.568 476.659 122.6ZM492.105 123.96C492.105 119.832 486.089 121.624 486.089 118.744C486.089 117.544 487.033 116.92 488.233 116.952C489.593 116.968 490.297 117.816 490.393 118.568H491.993C491.817 116.872 490.425 115.704 488.297 115.704C486.089 115.704 484.601 116.952 484.601 118.792C484.601 122.936 490.633 121.016 490.633 124.024C490.633 125.08 489.801 125.88 488.393 125.88C486.841 125.88 486.185 124.952 486.089 124.024H484.537C484.569 125.864 486.153 127.112 488.393 127.112C490.809 127.112 492.105 125.544 492.105 123.96ZM494.568 124.6C494.568 126.36 495.448 127 497 127H498.312V125.768H497.24C496.344 125.768 496.024 125.464 496.024 124.6V119.432H498.312V118.232H496.024V116.024H494.568V118.232H493.432V119.432H494.568V124.6ZM508.396 122.6C508.396 119.832 506.46 118.088 503.964 118.088C501.484 118.088 499.532 119.832 499.532 122.6C499.532 125.384 501.42 127.144 503.9 127.144C506.396 127.144 508.396 125.384 508.396 122.6ZM501.02 122.6C501.02 120.392 502.412 119.352 503.948 119.352C505.452 119.352 506.908 120.392 506.908 122.6C506.908 124.824 505.42 125.864 503.9 125.864C502.38 125.864 501.02 124.824 501.02 122.6ZM511.766 122.232C511.766 120.2 512.822 119.576 514.214 119.576H514.598V118.072C513.206 118.072 512.262 118.68 511.766 119.656V118.232H510.31V127H511.766V122.232ZM520.007 119.32C521.511 119.32 522.791 120.264 522.775 121.976H517.239C517.399 120.264 518.583 119.32 520.007 119.32ZM524.103 124.296H522.535C522.215 125.24 521.383 125.912 520.071 125.912C518.583 125.912 517.335 124.936 517.223 123.16H524.231C524.263 122.856 524.279 122.6 524.279 122.28C524.279 119.88 522.615 118.088 520.071 118.088C517.511 118.088 515.735 119.832 515.735 122.6C515.735 125.384 517.575 127.144 520.071 127.144C522.247 127.144 523.655 125.896 524.103 124.296Z" fill="black"/>
<path d="M220.48 169.96C220.48 165.832 214.464 167.624 214.464 164.744C214.464 163.544 215.408 162.92 216.608 162.952C217.968 162.968 218.672 163.816 218.768 164.568H220.368C220.192 162.872 218.8 161.704 216.672 161.704C214.464 161.704 212.976 162.952 212.976 164.792C212.976 168.936 219.008 167.016 219.008 170.024C219.008 171.08 218.176 171.88 216.768 171.88C215.216 171.88 214.56 170.952 214.464 170.024H212.912C212.944 171.864 214.528 173.112 216.768 173.112C219.184 173.112 220.48 171.544 220.48 169.96ZM226.351 165.32C227.855 165.32 229.135 166.264 229.119 167.976H223.583C223.743 166.264 224.927 165.32 226.351 165.32ZM230.447 170.296H228.879C228.559 171.24 227.727 171.912 226.415 171.912C224.927 171.912 223.679 170.936 223.567 169.16H230.575C230.607 168.856 230.623 168.6 230.623 168.28C230.623 165.88 228.959 164.088 226.415 164.088C223.855 164.088 222.079 165.832 222.079 168.6C222.079 171.384 223.919 173.144 226.415 173.144C228.591 173.144 229.999 171.896 230.447 170.296ZM232.001 168.584C232.001 171.304 233.809 173.144 236.145 173.144C237.761 173.144 238.897 172.312 239.425 171.368V173H240.897V164.232H239.425V165.832C238.913 164.92 237.793 164.088 236.161 164.088C233.809 164.088 232.001 165.848 232.001 168.584ZM239.425 168.6C239.425 170.664 238.049 171.864 236.449 171.864C234.849 171.864 233.489 170.648 233.489 168.584C233.489 166.52 234.849 165.352 236.449 165.352C238.049 165.352 239.425 166.568 239.425 168.6ZM244.813 168.232C244.813 166.2 245.869 165.576 247.261 165.576H247.645V164.072C246.253 164.072 245.309 164.68 244.813 165.656V164.232H243.357V173H244.813V168.232ZM248.782 168.6C248.782 171.384 250.558 173.144 253.054 173.144C255.23 173.144 256.654 171.928 257.102 170.184H255.534C255.214 171.288 254.35 171.912 253.054 171.912C251.454 171.912 250.27 170.776 250.27 168.6C250.27 166.456 251.454 165.32 253.054 165.32C254.35 165.32 255.23 165.992 255.534 167.048H257.102C256.654 165.208 255.23 164.088 253.054 164.088C250.558 164.088 248.782 165.848 248.782 168.6ZM259.045 173H260.501V168.152C260.501 166.264 261.525 165.336 263.013 165.336C264.485 165.336 265.461 166.248 265.461 168.04V173H266.901V167.832C266.901 165.32 265.349 164.072 263.397 164.072C262.165 164.072 261.077 164.568 260.501 165.496V161.16H259.045V173Z" fill="black"/>
</svg>
